%TF.GenerationSoftware,Altium Limited,Altium Designer,24.5.2 (23)*%
G04 Layer_Physical_Order=3*
G04 Layer_Color=16440176*
%FSLAX45Y45*%
%MOMM*%
%TF.SameCoordinates,36DB1FCB-C3D3-4704-BDE4-177FFF87CD08*%
%TF.FilePolarity,Positive*%
%TF.FileFunction,Copper,L3,Inr,Signal*%
%TF.Part,Single*%
G01*
G75*
%TA.AperFunction,ComponentPad*%
%ADD36R,5.00000X5.00000*%
%ADD37C,1.70000*%
%ADD38R,1.70000X1.70000*%
%ADD39C,1.50000*%
%ADD40R,2.50000X2.50000*%
%ADD41C,2.50000*%
%ADD42C,3.71600*%
%ADD44O,2.40000X1.20000*%
%ADD46O,1.20000X2.40000*%
%TA.AperFunction,ViaPad*%
%ADD47C,0.60000*%
%ADD48C,1.00000*%
%ADD49C,1.27000*%
%TA.AperFunction,WasherPad*%
%ADD50C,5.00000*%
G36*
X5593768Y5971403D02*
X5654496Y5955131D01*
X5712582Y5931071D01*
X5767028Y5899637D01*
X5816906Y5861363D01*
X5861363Y5816907D01*
X5899637Y5767028D01*
X5931071Y5712582D01*
X5955131Y5654495D01*
X5971403Y5593768D01*
X5979609Y5531435D01*
Y5500000D01*
Y500000D01*
Y468564D01*
X5971403Y406232D01*
X5955131Y345503D01*
X5931071Y287418D01*
X5899637Y232972D01*
X5861363Y183094D01*
X5816907Y138637D01*
X5767028Y100363D01*
X5712582Y68929D01*
X5654495Y44868D01*
X5593768Y28597D01*
X5531435Y20391D01*
X4865660D01*
X4864994Y30551D01*
X4873315Y31646D01*
X4890383Y38716D01*
X4905038Y49962D01*
X4905068Y50000D01*
X4910000D01*
Y56427D01*
X4916284Y64617D01*
X4923354Y81685D01*
X4925765Y100000D01*
Y220000D01*
X4923354Y238316D01*
X4916284Y255383D01*
X4910000Y263573D01*
Y270000D01*
X4905068D01*
X4905038Y270039D01*
X4890383Y281285D01*
X4873315Y288354D01*
X4855000Y290765D01*
X4836685Y288354D01*
X4819617Y281285D01*
X4804961Y270039D01*
X4804932Y270000D01*
X4800000D01*
Y263573D01*
X4793716Y255383D01*
X4786646Y238316D01*
X4784235Y220000D01*
Y100000D01*
X4786646Y81685D01*
X4793716Y64617D01*
X4800000Y56427D01*
Y50000D01*
X4804932D01*
X4804961Y49962D01*
X4819617Y38716D01*
X4836685Y31646D01*
X4845006Y30551D01*
X4844340Y20391D01*
X3515660D01*
X3514994Y30551D01*
X3523316Y31646D01*
X3540383Y38716D01*
X3555039Y49962D01*
X3555068Y50000D01*
X3560000D01*
Y56427D01*
X3566284Y64617D01*
X3573354Y81685D01*
X3575765Y100000D01*
Y220000D01*
X3573354Y238316D01*
X3566284Y255383D01*
X3560000Y263573D01*
Y270000D01*
X3555068D01*
X3555039Y270039D01*
X3540383Y281285D01*
X3523316Y288354D01*
X3505000Y290765D01*
X3486685Y288354D01*
X3469617Y281285D01*
X3454962Y270039D01*
X3454932Y270000D01*
X3450000D01*
Y263573D01*
X3443716Y255383D01*
X3436646Y238316D01*
X3434235Y220000D01*
Y100000D01*
X3436646Y81685D01*
X3443716Y64617D01*
X3450000Y56427D01*
Y50000D01*
X3454932D01*
X3454962Y49962D01*
X3469617Y38716D01*
X3486685Y31646D01*
X3495006Y30551D01*
X3494340Y20391D01*
X468564D01*
X406232Y28597D01*
X345503Y44869D01*
X287418Y68929D01*
X232972Y100363D01*
X183094Y138636D01*
X138637Y183093D01*
X100363Y232972D01*
X68929Y287418D01*
X44868Y345505D01*
X28597Y406232D01*
X20391Y468564D01*
Y500000D01*
Y5500000D01*
Y5531435D01*
X28597Y5593768D01*
X44869Y5654496D01*
X68929Y5712582D01*
X100363Y5767028D01*
X138636Y5816906D01*
X183093Y5861363D01*
X232972Y5899637D01*
X287418Y5931071D01*
X345505Y5955131D01*
X406232Y5971403D01*
X468564Y5979609D01*
X5531435D01*
X5593768Y5971403D01*
D02*
G37*
%LPC*%
G36*
X2502256Y5886991D02*
X1981936D01*
Y5366670D01*
X2502256D01*
Y5886991D01*
D02*
G37*
G36*
X517236Y5675000D02*
X482764D01*
X448954Y5668275D01*
X417106Y5655083D01*
X388444Y5635931D01*
X364069Y5611556D01*
X344917Y5582894D01*
X331725Y5551046D01*
X325000Y5517236D01*
Y5482764D01*
X331725Y5448954D01*
X344917Y5417106D01*
X364069Y5388444D01*
X388444Y5364069D01*
X417106Y5344917D01*
X448954Y5331725D01*
X482764Y5325000D01*
X517236D01*
X551046Y5331725D01*
X582894Y5344917D01*
X611556Y5364069D01*
X635931Y5388444D01*
X655083Y5417106D01*
X668275Y5448954D01*
X675000Y5482764D01*
Y5517236D01*
X668275Y5551046D01*
X655083Y5582894D01*
X635931Y5611556D01*
X611556Y5635931D01*
X582894Y5655083D01*
X551046Y5668275D01*
X517236Y5675000D01*
D02*
G37*
G36*
X5525623Y5760160D02*
X5474376D01*
X5424114Y5750162D01*
X5376768Y5730551D01*
X5334157Y5702080D01*
X5297920Y5665842D01*
X5269449Y5623232D01*
X5249838Y5575886D01*
X5239840Y5525623D01*
Y5474376D01*
X5249838Y5424114D01*
X5269449Y5376768D01*
X5297920Y5334157D01*
X5334157Y5297920D01*
X5376768Y5269449D01*
X5424114Y5249838D01*
X5474376Y5239840D01*
X5525623D01*
X5575886Y5249838D01*
X5623232Y5269449D01*
X5665842Y5297920D01*
X5702080Y5334157D01*
X5730551Y5376768D01*
X5750162Y5424114D01*
X5760160Y5474376D01*
Y5525623D01*
X5750162Y5575886D01*
X5730551Y5623232D01*
X5702080Y5665842D01*
X5665842Y5702080D01*
X5623232Y5730551D01*
X5575886Y5750162D01*
X5525623Y5760160D01*
D02*
G37*
G36*
X4160032Y5251200D02*
X4139968D01*
X4120588Y5246007D01*
X4103212Y5235975D01*
X4089025Y5221788D01*
X4078993Y5204412D01*
X4073800Y5185032D01*
Y5164968D01*
X4078993Y5145588D01*
X4089025Y5128212D01*
X4103212Y5114025D01*
X4120588Y5103993D01*
X4139968Y5098800D01*
X4160032D01*
X4179412Y5103993D01*
X4196788Y5114025D01*
X4210975Y5128212D01*
X4221007Y5145588D01*
X4226200Y5164968D01*
Y5185032D01*
X4221007Y5204412D01*
X4210975Y5221788D01*
X4196788Y5235975D01*
X4179412Y5246007D01*
X4160032Y5251200D01*
D02*
G37*
G36*
X2483493Y4642700D02*
X2466506D01*
X2450812Y4636199D01*
X2438801Y4624187D01*
X2432300Y4608493D01*
Y4591506D01*
X2438801Y4575813D01*
X2450812Y4563801D01*
X2466506Y4557300D01*
X2483493D01*
X2499187Y4563801D01*
X2511199Y4575813D01*
X2517700Y4591506D01*
Y4608493D01*
X2511199Y4624187D01*
X2499187Y4636199D01*
X2483493Y4642700D01*
D02*
G37*
G36*
X2383493D02*
X2366506D01*
X2350812Y4636199D01*
X2338801Y4624187D01*
X2332300Y4608493D01*
Y4591506D01*
X2338801Y4575813D01*
X2350812Y4563801D01*
X2366506Y4557300D01*
X2383493D01*
X2399187Y4563801D01*
X2411199Y4575813D01*
X2417700Y4591506D01*
Y4608493D01*
X2411199Y4624187D01*
X2399187Y4636199D01*
X2383493Y4642700D01*
D02*
G37*
G36*
X2283493D02*
X2266506D01*
X2250812Y4636199D01*
X2238801Y4624187D01*
X2232300Y4608493D01*
Y4591506D01*
X2238801Y4575813D01*
X2250812Y4563801D01*
X2266506Y4557300D01*
X2283493D01*
X2299187Y4563801D01*
X2311199Y4575813D01*
X2317700Y4591506D01*
Y4608493D01*
X2311199Y4624187D01*
X2299187Y4636199D01*
X2283493Y4642700D01*
D02*
G37*
G36*
X2183493D02*
X2166506D01*
X2150813Y4636199D01*
X2138801Y4624187D01*
X2132300Y4608493D01*
Y4591506D01*
X2138801Y4575813D01*
X2150813Y4563801D01*
X2166506Y4557300D01*
X2183493D01*
X2199187Y4563801D01*
X2211199Y4575813D01*
X2217700Y4591506D01*
Y4608493D01*
X2211199Y4624187D01*
X2199187Y4636199D01*
X2183493Y4642700D01*
D02*
G37*
G36*
X3883494Y4592700D02*
X3866507D01*
X3850813Y4586199D01*
X3838801Y4574187D01*
X3832300Y4558494D01*
Y4541507D01*
X3838801Y4525813D01*
X3850813Y4513801D01*
X3866507Y4507300D01*
X3883494D01*
X3899188Y4513801D01*
X3911199Y4525813D01*
X3917700Y4541507D01*
Y4558494D01*
X3911199Y4574187D01*
X3899188Y4586199D01*
X3883494Y4592700D01*
D02*
G37*
G36*
X3758494D02*
X3741507D01*
X3725813Y4586199D01*
X3713801Y4574187D01*
X3707300Y4558494D01*
Y4541507D01*
X3713801Y4525813D01*
X3725813Y4513801D01*
X3741507Y4507300D01*
X3758494D01*
X3774188Y4513801D01*
X3786199Y4525813D01*
X3792700Y4541507D01*
Y4558494D01*
X3786199Y4574187D01*
X3774188Y4586199D01*
X3758494Y4592700D01*
D02*
G37*
G36*
X3633494D02*
X3616507D01*
X3600813Y4586199D01*
X3588801Y4574187D01*
X3582300Y4558494D01*
Y4541507D01*
X3588801Y4525813D01*
X3600813Y4513801D01*
X3616507Y4507300D01*
X3633494D01*
X3649188Y4513801D01*
X3661199Y4525813D01*
X3667700Y4541507D01*
Y4558494D01*
X3661199Y4574187D01*
X3649188Y4586199D01*
X3633494Y4592700D01*
D02*
G37*
G36*
X3508494D02*
X3491507D01*
X3475813Y4586199D01*
X3463801Y4574187D01*
X3457300Y4558494D01*
Y4541507D01*
X3463801Y4525813D01*
X3475813Y4513801D01*
X3491507Y4507300D01*
X3508494D01*
X3524188Y4513801D01*
X3536199Y4525813D01*
X3542700Y4541507D01*
Y4558494D01*
X3536199Y4574187D01*
X3524188Y4586199D01*
X3508494Y4592700D01*
D02*
G37*
G36*
X1083493D02*
X1066506D01*
X1050812Y4586199D01*
X1038801Y4574187D01*
X1032300Y4558494D01*
Y4541507D01*
X1038801Y4525813D01*
X1050812Y4513801D01*
X1066506Y4507300D01*
X1083493D01*
X1099187Y4513801D01*
X1111199Y4525813D01*
X1117700Y4541507D01*
Y4558494D01*
X1111199Y4574187D01*
X1099187Y4586199D01*
X1083493Y4592700D01*
D02*
G37*
G36*
X2483493Y4542700D02*
X2466506D01*
X2450812Y4536199D01*
X2438801Y4524187D01*
X2432300Y4508493D01*
Y4491506D01*
X2438801Y4475812D01*
X2450812Y4463801D01*
X2466506Y4457300D01*
X2483493D01*
X2499187Y4463801D01*
X2511199Y4475812D01*
X2517700Y4491506D01*
Y4508493D01*
X2511199Y4524187D01*
X2499187Y4536199D01*
X2483493Y4542700D01*
D02*
G37*
G36*
X2383493D02*
X2366506D01*
X2350812Y4536199D01*
X2338801Y4524187D01*
X2332300Y4508493D01*
Y4491506D01*
X2338801Y4475812D01*
X2350812Y4463801D01*
X2366506Y4457300D01*
X2383493D01*
X2399187Y4463801D01*
X2411199Y4475812D01*
X2417700Y4491506D01*
Y4508493D01*
X2411199Y4524187D01*
X2399187Y4536199D01*
X2383493Y4542700D01*
D02*
G37*
G36*
X2283493D02*
X2266506D01*
X2250812Y4536199D01*
X2238801Y4524187D01*
X2232300Y4508493D01*
Y4491506D01*
X2238801Y4475812D01*
X2250812Y4463801D01*
X2266506Y4457300D01*
X2283493D01*
X2299187Y4463801D01*
X2311199Y4475812D01*
X2317700Y4491506D01*
Y4508493D01*
X2311199Y4524187D01*
X2299187Y4536199D01*
X2283493Y4542700D01*
D02*
G37*
G36*
X2183493D02*
X2166506D01*
X2150813Y4536199D01*
X2138801Y4524187D01*
X2132300Y4508493D01*
Y4491506D01*
X2138801Y4475812D01*
X2150813Y4463801D01*
X2166506Y4457300D01*
X2183493D01*
X2199187Y4463801D01*
X2211199Y4475812D01*
X2217700Y4491506D01*
Y4508493D01*
X2211199Y4524187D01*
X2199187Y4536199D01*
X2183493Y4542700D01*
D02*
G37*
G36*
X1083493Y4492700D02*
X1066506D01*
X1050812Y4486199D01*
X1038801Y4474187D01*
X1032300Y4458493D01*
Y4441506D01*
X1038801Y4425813D01*
X1050812Y4413801D01*
X1066506Y4407300D01*
X1083493D01*
X1099187Y4413801D01*
X1111199Y4425813D01*
X1117700Y4441506D01*
Y4458493D01*
X1111199Y4474187D01*
X1099187Y4486199D01*
X1083493Y4492700D01*
D02*
G37*
G36*
X3883494Y4467700D02*
X3866507D01*
X3850813Y4461199D01*
X3838801Y4449187D01*
X3832300Y4433494D01*
Y4416507D01*
X3838801Y4400813D01*
X3850813Y4388801D01*
X3866507Y4382300D01*
X3883494D01*
X3899188Y4388801D01*
X3911199Y4400813D01*
X3917700Y4416507D01*
Y4433494D01*
X3911199Y4449187D01*
X3899188Y4461199D01*
X3883494Y4467700D01*
D02*
G37*
G36*
X3758494D02*
X3741507D01*
X3725813Y4461199D01*
X3713801Y4449187D01*
X3707300Y4433494D01*
Y4416507D01*
X3713801Y4400813D01*
X3725813Y4388801D01*
X3741507Y4382300D01*
X3758494D01*
X3774188Y4388801D01*
X3786199Y4400813D01*
X3792700Y4416507D01*
Y4433494D01*
X3786199Y4449187D01*
X3774188Y4461199D01*
X3758494Y4467700D01*
D02*
G37*
G36*
X3633494D02*
X3616507D01*
X3600813Y4461199D01*
X3588801Y4449187D01*
X3582300Y4433494D01*
Y4416507D01*
X3588801Y4400813D01*
X3600813Y4388801D01*
X3616507Y4382300D01*
X3633494D01*
X3649188Y4388801D01*
X3661199Y4400813D01*
X3667700Y4416507D01*
Y4433494D01*
X3661199Y4449187D01*
X3649188Y4461199D01*
X3633494Y4467700D01*
D02*
G37*
G36*
X3508494D02*
X3491507D01*
X3475813Y4461199D01*
X3463801Y4449187D01*
X3457300Y4433494D01*
Y4416507D01*
X3463801Y4400813D01*
X3475813Y4388801D01*
X3491507Y4382300D01*
X3508494D01*
X3524188Y4388801D01*
X3536199Y4400813D01*
X3542700Y4416507D01*
Y4433494D01*
X3536199Y4449187D01*
X3524188Y4461199D01*
X3508494Y4467700D01*
D02*
G37*
G36*
X1083493Y4392700D02*
X1066506D01*
X1050812Y4386199D01*
X1038801Y4374188D01*
X1032300Y4358494D01*
Y4341507D01*
X1038801Y4325813D01*
X1050812Y4313801D01*
X1066506Y4307300D01*
X1083493D01*
X1099187Y4313801D01*
X1111199Y4325813D01*
X1117700Y4341507D01*
Y4358494D01*
X1111199Y4374188D01*
X1099187Y4386199D01*
X1083493Y4392700D01*
D02*
G37*
G36*
Y4292700D02*
X1066506D01*
X1050812Y4286199D01*
X1038801Y4274188D01*
X1032300Y4258494D01*
Y4241507D01*
X1038801Y4225813D01*
X1050812Y4213801D01*
X1066506Y4207300D01*
X1083493D01*
X1099187Y4213801D01*
X1111199Y4225813D01*
X1117700Y4241507D01*
Y4258494D01*
X1111199Y4274188D01*
X1099187Y4286199D01*
X1083493Y4292700D01*
D02*
G37*
G36*
X3060032Y4276200D02*
X3039968D01*
X3020588Y4271007D01*
X3003212Y4260975D01*
X2989025Y4246788D01*
X2978993Y4229412D01*
X2973800Y4210032D01*
Y4189968D01*
X2978993Y4170588D01*
X2989025Y4153212D01*
X3003212Y4139025D01*
X3020588Y4128993D01*
X3039968Y4123800D01*
X3060032D01*
X3079412Y4128993D01*
X3096788Y4139025D01*
X3110975Y4153212D01*
X3121007Y4170588D01*
X3126200Y4189968D01*
Y4210032D01*
X3121007Y4229412D01*
X3110975Y4246788D01*
X3096788Y4260975D01*
X3079412Y4271007D01*
X3060032Y4276200D01*
D02*
G37*
G36*
X1083493Y4192700D02*
X1066506D01*
X1050812Y4186199D01*
X1038801Y4174187D01*
X1032300Y4158494D01*
Y4141507D01*
X1038801Y4125813D01*
X1050812Y4113801D01*
X1066506Y4107300D01*
X1083493D01*
X1099187Y4113801D01*
X1111199Y4125813D01*
X1117700Y4141507D01*
Y4158494D01*
X1111199Y4174187D01*
X1099187Y4186199D01*
X1083493Y4192700D01*
D02*
G37*
G36*
X3983493Y3792700D02*
X3966506D01*
X3950813Y3786199D01*
X3938801Y3774188D01*
X3932300Y3758494D01*
Y3741507D01*
X3938801Y3725813D01*
X3950813Y3713801D01*
X3966506Y3707300D01*
X3983493D01*
X3999187Y3713801D01*
X4011199Y3725813D01*
X4017700Y3741507D01*
Y3758494D01*
X4011199Y3774188D01*
X3999187Y3786199D01*
X3983493Y3792700D01*
D02*
G37*
G36*
X3883493D02*
X3866506D01*
X3850812Y3786199D01*
X3838801Y3774188D01*
X3832300Y3758494D01*
Y3741507D01*
X3838801Y3725813D01*
X3850812Y3713801D01*
X3866506Y3707300D01*
X3883493D01*
X3899187Y3713801D01*
X3911199Y3725813D01*
X3917700Y3741507D01*
Y3758494D01*
X3911199Y3774188D01*
X3899187Y3786199D01*
X3883493Y3792700D01*
D02*
G37*
G36*
X3983493Y3692700D02*
X3966506D01*
X3950813Y3686199D01*
X3938801Y3674187D01*
X3932300Y3658494D01*
Y3641507D01*
X3938801Y3625813D01*
X3950813Y3613801D01*
X3966506Y3607300D01*
X3983493D01*
X3999187Y3613801D01*
X4011199Y3625813D01*
X4017700Y3641507D01*
Y3658494D01*
X4011199Y3674187D01*
X3999187Y3686199D01*
X3983493Y3692700D01*
D02*
G37*
G36*
X3883493D02*
X3866506D01*
X3850812Y3686199D01*
X3838801Y3674187D01*
X3832300Y3658494D01*
Y3641507D01*
X3838801Y3625813D01*
X3850812Y3613801D01*
X3866506Y3607300D01*
X3883493D01*
X3899187Y3613801D01*
X3911199Y3625813D01*
X3917700Y3641507D01*
Y3658494D01*
X3911199Y3674187D01*
X3899187Y3686199D01*
X3883493Y3692700D01*
D02*
G37*
G36*
X5833900Y3745765D02*
X5713900D01*
X5695584Y3743354D01*
X5678517Y3736284D01*
X5670327Y3730000D01*
X5663900D01*
Y3725068D01*
X5663861Y3725039D01*
X5652616Y3710383D01*
X5645546Y3693315D01*
X5643135Y3675000D01*
X5645546Y3656685D01*
X5652616Y3639617D01*
X5663861Y3624962D01*
X5663900Y3624932D01*
Y3620000D01*
X5670327D01*
X5678517Y3613716D01*
X5695584Y3606646D01*
X5713900Y3604235D01*
X5833900D01*
X5852216Y3606646D01*
X5869283Y3613716D01*
X5877473Y3620000D01*
X5883900D01*
Y3624932D01*
X5883939Y3624962D01*
X5895185Y3639617D01*
X5902254Y3656685D01*
X5904665Y3675000D01*
X5902254Y3693315D01*
X5895185Y3710383D01*
X5883939Y3725039D01*
X5883900Y3725068D01*
Y3730000D01*
X5877473D01*
X5869283Y3736284D01*
X5852216Y3743354D01*
X5833900Y3745765D01*
D02*
G37*
G36*
X3983493Y3592700D02*
X3966506D01*
X3950813Y3586199D01*
X3938801Y3574188D01*
X3932300Y3558494D01*
Y3541507D01*
X3938801Y3525813D01*
X3950813Y3513801D01*
X3966506Y3507300D01*
X3983493D01*
X3999187Y3513801D01*
X4011199Y3525813D01*
X4017700Y3541507D01*
Y3558494D01*
X4011199Y3574188D01*
X3999187Y3586199D01*
X3983493Y3592700D01*
D02*
G37*
G36*
X3883493D02*
X3866506D01*
X3850812Y3586199D01*
X3838801Y3574188D01*
X3832300Y3558494D01*
Y3541507D01*
X3838801Y3525813D01*
X3850812Y3513801D01*
X3866506Y3507300D01*
X3883493D01*
X3899187Y3513801D01*
X3911199Y3525813D01*
X3917700Y3541507D01*
Y3558494D01*
X3911199Y3574188D01*
X3899187Y3586199D01*
X3883493Y3592700D01*
D02*
G37*
G36*
X3983493Y3492700D02*
X3966506D01*
X3950813Y3486199D01*
X3938801Y3474188D01*
X3932300Y3458494D01*
Y3441507D01*
X3938801Y3425813D01*
X3950813Y3413801D01*
X3966506Y3407300D01*
X3983493D01*
X3999187Y3413801D01*
X4011199Y3425813D01*
X4017700Y3441507D01*
Y3458494D01*
X4011199Y3474188D01*
X3999187Y3486199D01*
X3983493Y3492700D01*
D02*
G37*
G36*
X3883493D02*
X3866506D01*
X3850812Y3486199D01*
X3838801Y3474188D01*
X3832300Y3458494D01*
Y3441507D01*
X3838801Y3425813D01*
X3850812Y3413801D01*
X3866506Y3407300D01*
X3883493D01*
X3899187Y3413801D01*
X3911199Y3425813D01*
X3917700Y3441507D01*
Y3458494D01*
X3911199Y3474188D01*
X3899187Y3486199D01*
X3883493Y3492700D01*
D02*
G37*
G36*
X3983493Y3392700D02*
X3966506D01*
X3950813Y3386199D01*
X3938801Y3374188D01*
X3932300Y3358494D01*
Y3341507D01*
X3938801Y3325813D01*
X3950813Y3313801D01*
X3966506Y3307300D01*
X3983493D01*
X3999187Y3313801D01*
X4011199Y3325813D01*
X4017700Y3341507D01*
Y3358494D01*
X4011199Y3374188D01*
X3999187Y3386199D01*
X3983493Y3392700D01*
D02*
G37*
G36*
X3883493D02*
X3866506D01*
X3850812Y3386199D01*
X3838801Y3374188D01*
X3832300Y3358494D01*
Y3341507D01*
X3838801Y3325813D01*
X3850812Y3313801D01*
X3866506Y3307300D01*
X3883493D01*
X3899187Y3313801D01*
X3911199Y3325813D01*
X3917700Y3341507D01*
Y3358494D01*
X3911199Y3374188D01*
X3899187Y3386199D01*
X3883493Y3392700D01*
D02*
G37*
G36*
X1162528Y3495160D02*
X1137472D01*
X1113270Y3488675D01*
X1091570Y3476147D01*
X1073853Y3458430D01*
X1061325Y3436730D01*
X1054840Y3412528D01*
Y3387472D01*
X1061325Y3363270D01*
X1073853Y3341570D01*
X1091570Y3323853D01*
X1113270Y3311325D01*
X1137472Y3304840D01*
X1162528D01*
X1186730Y3311325D01*
X1208430Y3323853D01*
X1226147Y3341570D01*
X1238675Y3363270D01*
X1245160Y3387472D01*
Y3412528D01*
X1238675Y3436730D01*
X1226147Y3458430D01*
X1208430Y3476147D01*
X1186730Y3488675D01*
X1162528Y3495160D01*
D02*
G37*
G36*
X2583493Y3242700D02*
X2566506D01*
X2550813Y3236199D01*
X2538801Y3224187D01*
X2532300Y3208493D01*
Y3191506D01*
X2538801Y3175813D01*
X2550813Y3163801D01*
X2566506Y3157300D01*
X2583493D01*
X2599187Y3163801D01*
X2611199Y3175813D01*
X2617700Y3191506D01*
Y3208493D01*
X2611199Y3224187D01*
X2599187Y3236199D01*
X2583493Y3242700D01*
D02*
G37*
G36*
X2458493D02*
X2441506D01*
X2425813Y3236199D01*
X2413801Y3224187D01*
X2407300Y3208493D01*
Y3191506D01*
X2413801Y3175813D01*
X2425813Y3163801D01*
X2441506Y3157300D01*
X2458493D01*
X2474187Y3163801D01*
X2486199Y3175813D01*
X2492700Y3191506D01*
Y3208493D01*
X2486199Y3224187D01*
X2474187Y3236199D01*
X2458493Y3242700D01*
D02*
G37*
G36*
X3083493Y3192700D02*
X3066506D01*
X3050813Y3186199D01*
X3038801Y3174187D01*
X3032300Y3158494D01*
Y3141507D01*
X3038801Y3125813D01*
X3050813Y3113801D01*
X3066506Y3107300D01*
X3083493D01*
X3099187Y3113801D01*
X3111199Y3125813D01*
X3117700Y3141507D01*
Y3158494D01*
X3111199Y3174187D01*
X3099187Y3186199D01*
X3083493Y3192700D01*
D02*
G37*
G36*
X2458493Y3142700D02*
X2441506D01*
X2425813Y3136199D01*
X2413801Y3124188D01*
X2407300Y3108494D01*
Y3091507D01*
X2413801Y3075813D01*
X2425813Y3063801D01*
X2441506Y3057300D01*
X2458493D01*
X2474187Y3063801D01*
X2486199Y3075813D01*
X2492700Y3091507D01*
Y3108494D01*
X2486199Y3124188D01*
X2474187Y3136199D01*
X2458493Y3142700D01*
D02*
G37*
G36*
X2583493Y3142700D02*
X2566506D01*
X2550813Y3136199D01*
X2538801Y3124187D01*
X2532300Y3108493D01*
Y3091506D01*
X2538801Y3075812D01*
X2550813Y3063801D01*
X2566506Y3057300D01*
X2583493D01*
X2599187Y3063801D01*
X2611199Y3075812D01*
X2617700Y3091506D01*
Y3108493D01*
X2611199Y3124187D01*
X2599187Y3136199D01*
X2583493Y3142700D01*
D02*
G37*
G36*
X1283493D02*
X1266506D01*
X1250813Y3136199D01*
X1238801Y3124187D01*
X1232300Y3108493D01*
Y3091506D01*
X1238801Y3075812D01*
X1250813Y3063801D01*
X1266506Y3057300D01*
X1283493D01*
X1299187Y3063801D01*
X1311199Y3075812D01*
X1317700Y3091506D01*
Y3108493D01*
X1311199Y3124187D01*
X1299187Y3136199D01*
X1283493Y3142700D01*
D02*
G37*
G36*
X1183493D02*
X1166506D01*
X1150813Y3136199D01*
X1138801Y3124187D01*
X1132300Y3108493D01*
Y3091506D01*
X1138801Y3075812D01*
X1150813Y3063801D01*
X1166506Y3057300D01*
X1183493D01*
X1199187Y3063801D01*
X1211199Y3075812D01*
X1217700Y3091506D01*
Y3108493D01*
X1211199Y3124187D01*
X1199187Y3136199D01*
X1183493Y3142700D01*
D02*
G37*
G36*
X1283493Y3042700D02*
X1266506D01*
X1250813Y3036199D01*
X1238801Y3024187D01*
X1232300Y3008493D01*
Y2991506D01*
X1238801Y2975812D01*
X1250813Y2963801D01*
X1266506Y2957300D01*
X1283493D01*
X1299187Y2963801D01*
X1311199Y2975812D01*
X1317700Y2991506D01*
Y3008493D01*
X1311199Y3024187D01*
X1299187Y3036199D01*
X1283493Y3042700D01*
D02*
G37*
G36*
X1183493D02*
X1166506D01*
X1150813Y3036199D01*
X1138801Y3024187D01*
X1132300Y3008493D01*
Y2991506D01*
X1138801Y2975812D01*
X1150813Y2963801D01*
X1166506Y2957300D01*
X1183493D01*
X1199187Y2963801D01*
X1211199Y2975812D01*
X1217700Y2991506D01*
Y3008493D01*
X1211199Y3024187D01*
X1199187Y3036199D01*
X1183493Y3042700D01*
D02*
G37*
G36*
X1283493Y2942700D02*
X1266506D01*
X1250813Y2936199D01*
X1238801Y2924187D01*
X1232300Y2908494D01*
Y2891507D01*
X1238801Y2875813D01*
X1250813Y2863801D01*
X1266506Y2857300D01*
X1283493D01*
X1299187Y2863801D01*
X1311199Y2875813D01*
X1317700Y2891507D01*
Y2908494D01*
X1311199Y2924187D01*
X1299187Y2936199D01*
X1283493Y2942700D01*
D02*
G37*
G36*
X1183493D02*
X1166506D01*
X1150813Y2936199D01*
X1138801Y2924187D01*
X1132300Y2908494D01*
Y2891507D01*
X1138801Y2875813D01*
X1150813Y2863801D01*
X1166506Y2857300D01*
X1183493D01*
X1199187Y2863801D01*
X1211199Y2875813D01*
X1217700Y2891507D01*
Y2908494D01*
X1211199Y2924187D01*
X1199187Y2936199D01*
X1183493Y2942700D01*
D02*
G37*
G36*
X4758493Y2867700D02*
X4741506D01*
X4725812Y2861199D01*
X4713801Y2849187D01*
X4707300Y2833493D01*
Y2816506D01*
X4713801Y2800813D01*
X4725812Y2788801D01*
X4741506Y2782300D01*
X4758493D01*
X4774187Y2788801D01*
X4786199Y2800813D01*
X4792700Y2816506D01*
Y2833493D01*
X4786199Y2849187D01*
X4774187Y2861199D01*
X4758493Y2867700D01*
D02*
G37*
G36*
X4633493D02*
X4616506D01*
X4600812Y2861199D01*
X4588801Y2849187D01*
X4582300Y2833493D01*
Y2816506D01*
X4588801Y2800813D01*
X4600812Y2788801D01*
X4616506Y2782300D01*
X4633493D01*
X4649187Y2788801D01*
X4661199Y2800813D01*
X4667700Y2816506D01*
Y2833493D01*
X4661199Y2849187D01*
X4649187Y2861199D01*
X4633493Y2867700D01*
D02*
G37*
G36*
X1283493Y2842700D02*
X1266506D01*
X1250813Y2836199D01*
X1238801Y2824187D01*
X1232300Y2808493D01*
Y2791506D01*
X1238801Y2775813D01*
X1250813Y2763801D01*
X1266506Y2757300D01*
X1283493D01*
X1299187Y2763801D01*
X1311199Y2775813D01*
X1317700Y2791506D01*
Y2808493D01*
X1311199Y2824187D01*
X1299187Y2836199D01*
X1283493Y2842700D01*
D02*
G37*
G36*
X1183493D02*
X1166506D01*
X1150813Y2836199D01*
X1138801Y2824187D01*
X1132300Y2808493D01*
Y2791506D01*
X1138801Y2775813D01*
X1150813Y2763801D01*
X1166506Y2757300D01*
X1183493D01*
X1199187Y2763801D01*
X1211199Y2775813D01*
X1217700Y2791506D01*
Y2808493D01*
X1211199Y2824187D01*
X1199187Y2836199D01*
X1183493Y2842700D01*
D02*
G37*
G36*
X4758493Y2742700D02*
X4741506D01*
X4725812Y2736199D01*
X4713801Y2724187D01*
X4707300Y2708493D01*
Y2691506D01*
X4713801Y2675813D01*
X4725812Y2663801D01*
X4741506Y2657300D01*
X4758493D01*
X4774187Y2663801D01*
X4786199Y2675813D01*
X4792700Y2691506D01*
Y2708493D01*
X4786199Y2724187D01*
X4774187Y2736199D01*
X4758493Y2742700D01*
D02*
G37*
G36*
X4633493D02*
X4616506D01*
X4600812Y2736199D01*
X4588801Y2724187D01*
X4582300Y2708493D01*
Y2691506D01*
X4588801Y2675813D01*
X4600812Y2663801D01*
X4616506Y2657300D01*
X4633493D01*
X4649187Y2663801D01*
X4661199Y2675813D01*
X4667700Y2691506D01*
Y2708493D01*
X4661199Y2724187D01*
X4649187Y2736199D01*
X4633493Y2742700D01*
D02*
G37*
G36*
X1283493D02*
X1266506D01*
X1250813Y2736199D01*
X1238801Y2724187D01*
X1232300Y2708493D01*
Y2691506D01*
X1238801Y2675813D01*
X1250813Y2663801D01*
X1266506Y2657300D01*
X1283493D01*
X1299187Y2663801D01*
X1311199Y2675813D01*
X1317700Y2691506D01*
Y2708493D01*
X1311199Y2724187D01*
X1299187Y2736199D01*
X1283493Y2742700D01*
D02*
G37*
G36*
X1183493D02*
X1166506D01*
X1150813Y2736199D01*
X1138801Y2724187D01*
X1132300Y2708493D01*
Y2691506D01*
X1138801Y2675813D01*
X1150813Y2663801D01*
X1166506Y2657300D01*
X1183493D01*
X1199187Y2663801D01*
X1211199Y2675813D01*
X1217700Y2691506D01*
Y2708493D01*
X1211199Y2724187D01*
X1199187Y2736199D01*
X1183493Y2742700D01*
D02*
G37*
G36*
X2850000Y2625000D02*
X2775000D01*
Y2600000D01*
X2850000D01*
Y2625000D01*
D02*
G37*
G36*
X4758493Y2617700D02*
X4741506D01*
X4725812Y2611199D01*
X4713801Y2599187D01*
X4707300Y2583493D01*
Y2566506D01*
X4713801Y2550813D01*
X4725812Y2538801D01*
X4741506Y2532300D01*
X4758493D01*
X4774187Y2538801D01*
X4786199Y2550813D01*
X4792700Y2566506D01*
Y2583493D01*
X4786199Y2599187D01*
X4774187Y2611199D01*
X4758493Y2617700D01*
D02*
G37*
G36*
X4633493D02*
X4616506D01*
X4600812Y2611199D01*
X4588801Y2599187D01*
X4582300Y2583493D01*
Y2566506D01*
X4588801Y2550813D01*
X4600812Y2538801D01*
X4616506Y2532300D01*
X4633493D01*
X4649187Y2538801D01*
X4661199Y2550813D01*
X4667700Y2566506D01*
Y2583493D01*
X4661199Y2599187D01*
X4649187Y2611199D01*
X4633493Y2617700D01*
D02*
G37*
G36*
X2533494D02*
X2516507D01*
X2500813Y2611199D01*
X2488801Y2599187D01*
X2482300Y2583493D01*
Y2566506D01*
X2488801Y2550813D01*
X2500813Y2538801D01*
X2516507Y2532300D01*
X2533494D01*
X2549187Y2538801D01*
X2561199Y2550813D01*
X2567700Y2566506D01*
Y2583493D01*
X2561199Y2599187D01*
X2549187Y2611199D01*
X2533494Y2617700D01*
D02*
G37*
G36*
X2408494D02*
X2391507D01*
X2375813Y2611199D01*
X2363801Y2599187D01*
X2357300Y2583493D01*
Y2566506D01*
X2363801Y2550813D01*
X2375813Y2538801D01*
X2391507Y2532300D01*
X2408494D01*
X2424187Y2538801D01*
X2436199Y2550813D01*
X2442700Y2566506D01*
Y2583493D01*
X2436199Y2599187D01*
X2424187Y2611199D01*
X2408494Y2617700D01*
D02*
G37*
G36*
X5193200Y2835960D02*
X5154600D01*
X5116741Y2828429D01*
X5081078Y2813658D01*
X5048983Y2792212D01*
X5021688Y2764917D01*
X5000242Y2732822D01*
X4985471Y2697159D01*
X4977940Y2659300D01*
Y2620700D01*
X4985471Y2582841D01*
X5000242Y2547178D01*
X5021688Y2515083D01*
X5048983Y2487788D01*
X5081078Y2466343D01*
X5116741Y2451571D01*
X5154600Y2444040D01*
X5193200D01*
X5231059Y2451571D01*
X5266722Y2466343D01*
X5298817Y2487788D01*
X5326112Y2515083D01*
X5347558Y2547178D01*
X5362329Y2582841D01*
X5369860Y2620700D01*
Y2659300D01*
X5362329Y2697159D01*
X5347558Y2732822D01*
X5326112Y2764917D01*
X5298817Y2792212D01*
X5266722Y2813658D01*
X5231059Y2828429D01*
X5193200Y2835960D01*
D02*
G37*
G36*
X2408494Y2517700D02*
X2391507D01*
X2375813Y2511199D01*
X2363801Y2499188D01*
X2357300Y2483494D01*
Y2466507D01*
X2363801Y2450813D01*
X2368352Y2446262D01*
X2362597Y2437648D01*
X2362472Y2437700D01*
X2337528D01*
X2314484Y2428154D01*
X2296846Y2410517D01*
X2287300Y2387472D01*
Y2362528D01*
X2296846Y2339484D01*
X2314484Y2321846D01*
X2324781Y2317580D01*
Y2307420D01*
X2314484Y2303154D01*
X2296846Y2285517D01*
X2287300Y2262472D01*
Y2237528D01*
X2296846Y2214484D01*
X2314484Y2196846D01*
X2337528Y2187300D01*
X2362472D01*
X2385517Y2196846D01*
X2403154Y2214484D01*
X2412700Y2237528D01*
Y2262472D01*
X2403154Y2285517D01*
X2385517Y2303154D01*
X2375219Y2307420D01*
Y2317580D01*
X2385517Y2321846D01*
X2403154Y2339484D01*
X2412700Y2362528D01*
Y2387472D01*
X2403154Y2410517D01*
X2391531Y2422140D01*
X2395739Y2432300D01*
X2408494D01*
X2424187Y2438801D01*
X2436199Y2450813D01*
X2442700Y2466507D01*
Y2483494D01*
X2436199Y2499188D01*
X2424187Y2511199D01*
X2408494Y2517700D01*
D02*
G37*
G36*
X2533494Y2517700D02*
X2516507D01*
X2500813Y2511199D01*
X2488801Y2499187D01*
X2482300Y2483493D01*
Y2466506D01*
X2488801Y2450812D01*
X2500813Y2438801D01*
X2516507Y2432300D01*
X2533494D01*
X2549187Y2438801D01*
X2561199Y2450812D01*
X2567700Y2466506D01*
Y2483493D01*
X2561199Y2499187D01*
X2549187Y2511199D01*
X2533494Y2517700D01*
D02*
G37*
G36*
X4758493Y2492700D02*
X4741506D01*
X4725812Y2486199D01*
X4713801Y2474187D01*
X4707300Y2458493D01*
Y2441506D01*
X4713801Y2425813D01*
X4725812Y2413801D01*
X4741506Y2407300D01*
X4758493D01*
X4774187Y2413801D01*
X4786199Y2425813D01*
X4792700Y2441506D01*
Y2458493D01*
X4786199Y2474187D01*
X4774187Y2486199D01*
X4758493Y2492700D01*
D02*
G37*
G36*
X4633493D02*
X4616506D01*
X4600812Y2486199D01*
X4588801Y2474187D01*
X4582300Y2458493D01*
Y2441506D01*
X4588801Y2425813D01*
X4600812Y2413801D01*
X4616506Y2407300D01*
X4633493D01*
X4649187Y2413801D01*
X4661199Y2425813D01*
X4667700Y2441506D01*
Y2458493D01*
X4661199Y2474187D01*
X4649187Y2486199D01*
X4633493Y2492700D01*
D02*
G37*
G36*
X5833900Y2395765D02*
X5713900D01*
X5695584Y2393354D01*
X5678517Y2386285D01*
X5670327Y2380000D01*
X5663900D01*
Y2375068D01*
X5663861Y2375039D01*
X5652616Y2360383D01*
X5645546Y2343316D01*
X5643135Y2325000D01*
X5645546Y2306685D01*
X5652616Y2289617D01*
X5663861Y2274962D01*
X5663900Y2274932D01*
Y2270000D01*
X5670327D01*
X5678517Y2263716D01*
X5695584Y2256646D01*
X5713900Y2254235D01*
X5833900D01*
X5852216Y2256646D01*
X5869283Y2263716D01*
X5877473Y2270000D01*
X5883900D01*
Y2274932D01*
X5883939Y2274962D01*
X5895185Y2289617D01*
X5902254Y2306685D01*
X5904665Y2325000D01*
X5902254Y2343316D01*
X5895185Y2360383D01*
X5883939Y2375039D01*
X5883900Y2375068D01*
Y2380000D01*
X5877473D01*
X5869283Y2386285D01*
X5852216Y2393354D01*
X5833900Y2395765D01*
D02*
G37*
G36*
X2378902Y973500D02*
X2108582D01*
Y703180D01*
X2378902D01*
Y973500D01*
D02*
G37*
G36*
X3839300Y955960D02*
X3800700D01*
X3762841Y948430D01*
X3727178Y933658D01*
X3695083Y912212D01*
X3667788Y884917D01*
X3646342Y852822D01*
X3631571Y817160D01*
X3624040Y779301D01*
Y740700D01*
X3631571Y702841D01*
X3646342Y667178D01*
X3667788Y635083D01*
X3695083Y607788D01*
X3727178Y586343D01*
X3762841Y571571D01*
X3800700Y564040D01*
X3839300D01*
X3877159Y571571D01*
X3912822Y586343D01*
X3944917Y607788D01*
X3972212Y635083D01*
X3993657Y667178D01*
X4008429Y702841D01*
X4015960Y740700D01*
Y779301D01*
X4008429Y817160D01*
X3993657Y852822D01*
X3972212Y884917D01*
X3944917Y912212D01*
X3912822Y933658D01*
X3877159Y948430D01*
X3839300Y955960D01*
D02*
G37*
G36*
X2554953Y423500D02*
X2532530D01*
X2510871Y417696D01*
X2491452Y406485D01*
X2475597Y390629D01*
X2464385Y371210D01*
X2458582Y349551D01*
Y327128D01*
X2464385Y305470D01*
X2475597Y286050D01*
X2491452Y270195D01*
X2510871Y258984D01*
X2532530Y253180D01*
X2554953D01*
X2576612Y258984D01*
X2596031Y270195D01*
X2611887Y286050D01*
X2623098Y305470D01*
X2628902Y327128D01*
Y349551D01*
X2623098Y371210D01*
X2611887Y390629D01*
X2596031Y406485D01*
X2576612Y417696D01*
X2554953Y423500D01*
D02*
G37*
G36*
X1454953D02*
X1432530D01*
X1410871Y417696D01*
X1391452Y406485D01*
X1375597Y390629D01*
X1364386Y371210D01*
X1358582Y349551D01*
Y327128D01*
X1364386Y305470D01*
X1375597Y286050D01*
X1391452Y270195D01*
X1410871Y258984D01*
X1432530Y253180D01*
X1454953D01*
X1476612Y258984D01*
X1496031Y270195D01*
X1511887Y286050D01*
X1523098Y305470D01*
X1528902Y327128D01*
Y349551D01*
X1523098Y371210D01*
X1511887Y390629D01*
X1496031Y406485D01*
X1476612Y417696D01*
X1454953Y423500D01*
D02*
G37*
G36*
X5525623Y760160D02*
X5474376D01*
X5424114Y750162D01*
X5376768Y730551D01*
X5334157Y702080D01*
X5297920Y665842D01*
X5269449Y623232D01*
X5249838Y575886D01*
X5239840Y525624D01*
Y474376D01*
X5249838Y424114D01*
X5269449Y376768D01*
X5297920Y334158D01*
X5334157Y297920D01*
X5376768Y269449D01*
X5424114Y249838D01*
X5474376Y239840D01*
X5525623D01*
X5575886Y249838D01*
X5623232Y269449D01*
X5665842Y297920D01*
X5702080Y334158D01*
X5730551Y376768D01*
X5750162Y424114D01*
X5760160Y474376D01*
Y525624D01*
X5750162Y575886D01*
X5730551Y623232D01*
X5702080Y665842D01*
X5665842Y702080D01*
X5623232Y730551D01*
X5575886Y750162D01*
X5525623Y760160D01*
D02*
G37*
G36*
X525624D02*
X474376D01*
X424114Y750162D01*
X376768Y730551D01*
X334158Y702080D01*
X297920Y665842D01*
X269449Y623232D01*
X249838Y575886D01*
X239840Y525624D01*
Y474376D01*
X249838Y424114D01*
X269449Y376768D01*
X297920Y334158D01*
X334158Y297920D01*
X376768Y269449D01*
X424114Y249838D01*
X474376Y239840D01*
X525624D01*
X575886Y249838D01*
X623232Y269449D01*
X665842Y297920D01*
X702080Y334158D01*
X730551Y376768D01*
X750162Y424114D01*
X760160Y474376D01*
Y525624D01*
X750162Y575886D01*
X730551Y623232D01*
X702080Y665842D01*
X665842Y702080D01*
X623232Y730551D01*
X575886Y750162D01*
X525624Y760160D01*
D02*
G37*
%LPD*%
D36*
X2242096Y5626831D02*
D03*
X1226096D02*
D03*
D37*
X1150000Y3400000D02*
D03*
D38*
X650000D02*
D03*
D39*
X1443742Y338340D02*
D03*
X2543742D02*
D03*
D40*
X2243742Y838340D02*
D03*
D41*
X1743742D02*
D03*
D42*
X5173900Y3360000D02*
D03*
X4540000Y760000D02*
D03*
X3820000D02*
D03*
X5173900Y2640000D02*
D03*
D44*
X5773900Y2325000D02*
D03*
Y3675000D02*
D03*
D46*
X3505000Y160000D02*
D03*
X4855000D02*
D03*
D47*
X4170000Y2820000D02*
D03*
X2009140Y3939540D02*
D03*
X2800000Y3607300D02*
D03*
X725000Y1125000D02*
D03*
X3075000Y3150000D02*
D03*
X2175000Y2575000D02*
D03*
X600000Y1250000D02*
D03*
X1975000Y3150000D02*
D03*
X2025000Y1850000D02*
D03*
X2300000Y3000000D02*
D03*
X600000Y1575000D02*
D03*
X725000Y1625000D02*
D03*
X475000Y1875000D02*
D03*
X450000Y2200000D02*
D03*
Y2475000D02*
D03*
X3475000Y2525000D02*
D03*
Y2425000D02*
D03*
X2725000Y2624827D02*
D03*
X3125000Y3925000D02*
D03*
X4300000Y4025000D02*
D03*
Y3825000D02*
D03*
X5125000Y5250000D02*
D03*
X3925000Y4875000D02*
D03*
X2375000Y4850000D02*
D03*
X3375000Y5000000D02*
D03*
X1925000Y5125000D02*
D03*
X925000Y5075000D02*
D03*
X1996720Y4061460D02*
D03*
X2650000Y3925000D02*
D03*
X2951873Y3502505D02*
D03*
X3396173Y3021173D02*
D03*
X3500000Y2800000D02*
D03*
X4175000Y3325000D02*
D03*
X3750000Y5900000D02*
D03*
X4000000Y5350000D02*
D03*
X2675000Y5675000D02*
D03*
X4275000D02*
D03*
X375000Y1350000D02*
D03*
X3875000Y3350000D02*
D03*
Y3450000D02*
D03*
Y3550000D02*
D03*
Y3650000D02*
D03*
X3975000D02*
D03*
Y3550000D02*
D03*
Y3450000D02*
D03*
Y3350000D02*
D03*
Y3750000D02*
D03*
X3875000D02*
D03*
X2575000Y3100000D02*
D03*
Y3200000D02*
D03*
X2450000Y3100000D02*
D03*
Y3200000D02*
D03*
X4625000Y2450000D02*
D03*
X4750000D02*
D03*
Y2825000D02*
D03*
Y2700000D02*
D03*
Y2575000D02*
D03*
X4625000Y2700000D02*
D03*
Y2825000D02*
D03*
Y2575000D02*
D03*
X2400000D02*
D03*
Y2475000D02*
D03*
X2525000Y2575000D02*
D03*
Y2475000D02*
D03*
X1175000Y3100000D02*
D03*
X1275000D02*
D03*
Y2700000D02*
D03*
Y2800000D02*
D03*
Y2900000D02*
D03*
Y3000000D02*
D03*
X1175000D02*
D03*
Y2900000D02*
D03*
Y2800000D02*
D03*
Y2700000D02*
D03*
X2475000Y4500000D02*
D03*
X2375000D02*
D03*
X2275000D02*
D03*
X2175000D02*
D03*
Y4600000D02*
D03*
X2275000D02*
D03*
X2375000D02*
D03*
X2475000D02*
D03*
X3500000Y4425000D02*
D03*
Y4550000D02*
D03*
X1075000D02*
D03*
Y4450000D02*
D03*
Y4350000D02*
D03*
Y4250000D02*
D03*
Y4150000D02*
D03*
X3875000Y4425000D02*
D03*
X3750000D02*
D03*
X3625000D02*
D03*
Y4550000D02*
D03*
X3750000D02*
D03*
X3875000D02*
D03*
X5075000Y4475000D02*
D03*
X400000Y2275000D02*
D03*
X3050000Y3300000D02*
D03*
X2750000Y1225000D02*
D03*
X4350000Y2825000D02*
D03*
X3450000Y1675000D02*
D03*
X3375000Y1825000D02*
D03*
X3000000Y1225000D02*
D03*
X2875000D02*
D03*
X2750000Y1100000D02*
D03*
X2875000D02*
D03*
X3000000D02*
D03*
X2625000D02*
D03*
Y1225000D02*
D03*
D48*
X2350000Y2250000D02*
D03*
Y2375000D02*
D03*
D49*
X4150000Y5175000D02*
D03*
X3050000Y4200000D02*
D03*
D50*
X5500000Y500000D02*
D03*
Y5500000D02*
D03*
X500000Y500000D02*
D03*
%TF.MD5,f05dfe08b9820bf2d2ee8bfcce931453*%
M02*
