%TF.GenerationSoftware,Altium Limited,Altium Designer,24.5.2 (23)*%
G04 Layer_Color=128*
%FSLAX45Y45*%
%MOMM*%
%TF.SameCoordinates,36DB1FCB-C3D3-4704-BDE4-177FFF87CD08*%
%TF.FilePolarity,Positive*%
%TF.FileFunction,Drillmap*%
%TF.Part,Single*%
G01*
G75*
%TA.AperFunction,NonConductor*%
%ADD70C,0.12700*%
D70*
X350000Y5500000D02*
X650000D01*
X500000Y5350000D02*
Y5650000D01*
X5350000Y500000D02*
X5650000D01*
X5500000Y350000D02*
Y650000D01*
X5350000Y5500000D02*
X5650000D01*
X5500000Y5350000D02*
Y5650000D01*
X350000Y500000D02*
X650000D01*
X500000Y350000D02*
Y650000D01*
X2082096Y5626831D02*
X2402096D01*
X2242096Y5466831D02*
Y5786830D01*
X1066096Y5626831D02*
X1386096D01*
X1226096Y5466831D02*
Y5786830D01*
X1112500Y3400000D02*
X1187500D01*
X1150000Y3362500D02*
Y3437500D01*
X612500Y3400000D02*
X687500D01*
X650000Y3362500D02*
Y3437500D01*
X1383742Y338340D02*
X1503742D01*
X1443742Y278340D02*
Y398340D01*
X2483742Y338340D02*
X2603742D01*
X2543742Y278340D02*
Y398340D01*
X2148742Y838340D02*
X2338742D01*
X2243742Y743340D02*
Y933340D01*
X1648742Y838340D02*
X1838742D01*
X1743742Y743340D02*
Y933340D01*
X5038900Y3360000D02*
X5308900D01*
X5173900Y3225000D02*
Y3495000D01*
X4405000Y760000D02*
X4675000D01*
X4540000Y625000D02*
Y895000D01*
X3685000Y760000D02*
X3955000D01*
X3820000Y625000D02*
Y895000D01*
X5743900Y2325000D02*
X5803900D01*
X5773900Y2295000D02*
Y2355000D01*
X5743900Y3675000D02*
X5803900D01*
X5773900Y3645000D02*
Y3705000D01*
X5038900Y2640000D02*
X5308900D01*
X5173900Y2505000D02*
Y2775000D01*
X3475000Y160000D02*
X3535000D01*
X3505000Y130000D02*
Y190000D01*
X4825000Y160000D02*
X4885000D01*
X4855000Y130000D02*
Y190000D01*
X4155000Y2820000D02*
X4185000D01*
X4170000Y2805000D02*
Y2835000D01*
X1994140Y3939540D02*
X2024140D01*
X2009140Y3924540D02*
Y3954540D01*
X2785000Y3607300D02*
X2815000D01*
X2800000Y3592300D02*
Y3622300D01*
X710000Y1125000D02*
X740000D01*
X725000Y1110000D02*
Y1140000D01*
X3060000Y3150000D02*
X3090000D01*
X3075000Y3135000D02*
Y3165000D01*
X2160000Y2575000D02*
X2190000D01*
X2175000Y2560000D02*
Y2590000D01*
X585000Y1250000D02*
X615000D01*
X600000Y1235000D02*
Y1265000D01*
X1960000Y3150000D02*
X1990000D01*
X1975000Y3135000D02*
Y3165000D01*
X2010000Y1850000D02*
X2040000D01*
X2025000Y1835000D02*
Y1865000D01*
X2320000Y2250000D02*
X2380000D01*
X2350000Y2220000D02*
Y2280000D01*
X2285000Y3000000D02*
X2315000D01*
X2300000Y2985000D02*
Y3015000D01*
X585000Y1575000D02*
X615000D01*
X600000Y1560000D02*
Y1590000D01*
X710000Y1625000D02*
X740000D01*
X725000Y1610000D02*
Y1640000D01*
X460000Y1875000D02*
X490000D01*
X475000Y1860000D02*
Y1890000D01*
X435000Y2200000D02*
X465000D01*
X450000Y2185000D02*
Y2215000D01*
X435000Y2475000D02*
X465000D01*
X450000Y2460000D02*
Y2490000D01*
X3460000Y2525000D02*
X3490000D01*
X3475000Y2510000D02*
Y2540000D01*
X3460000Y2425000D02*
X3490000D01*
X3475000Y2410000D02*
Y2440000D01*
X2710000Y2624827D02*
X2740000D01*
X2725000Y2609827D02*
Y2639827D01*
X3110000Y3925000D02*
X3140000D01*
X3125000Y3910000D02*
Y3940000D01*
X4285000Y4025000D02*
X4315000D01*
X4300000Y4010000D02*
Y4040000D01*
X4285000Y3825000D02*
X4315000D01*
X4300000Y3810000D02*
Y3840000D01*
X5110000Y5250000D02*
X5140000D01*
X5125000Y5235000D02*
Y5265000D01*
X3910000Y4875000D02*
X3940000D01*
X3925000Y4860000D02*
Y4890000D01*
X2360000Y4850000D02*
X2390000D01*
X2375000Y4835000D02*
Y4865000D01*
X3360000Y5000000D02*
X3390000D01*
X3375000Y4985000D02*
Y5015000D01*
X1910000Y5125000D02*
X1940000D01*
X1925000Y5110000D02*
Y5140000D01*
X910000Y5075000D02*
X940000D01*
X925000Y5060000D02*
Y5090000D01*
X1981720Y4061460D02*
X2011720D01*
X1996720Y4046460D02*
Y4076460D01*
X2635000Y3925000D02*
X2665000D01*
X2650000Y3910000D02*
Y3940000D01*
X2936873Y3502505D02*
X2966873D01*
X2951873Y3487505D02*
Y3517505D01*
X3381173Y3021173D02*
X3411173D01*
X3396173Y3006173D02*
Y3036173D01*
X3485000Y2800000D02*
X3515000D01*
X3500000Y2785000D02*
Y2815000D01*
X4160000Y3325000D02*
X4190000D01*
X4175000Y3310000D02*
Y3340000D01*
X3735000Y5900000D02*
X3765000D01*
X3750000Y5885000D02*
Y5915000D01*
X3985000Y5350000D02*
X4015000D01*
X4000000Y5335000D02*
Y5365000D01*
X2660000Y5675000D02*
X2690000D01*
X2675000Y5660000D02*
Y5690000D01*
X4260000Y5675000D02*
X4290000D01*
X4275000Y5660000D02*
Y5690000D01*
X360000Y1350000D02*
X390000D01*
X375000Y1335000D02*
Y1365000D01*
X3860000Y3350000D02*
X3890000D01*
X3875000Y3335000D02*
Y3365000D01*
X3860000Y3450000D02*
X3890000D01*
X3875000Y3435000D02*
Y3465000D01*
X3860000Y3550000D02*
X3890000D01*
X3875000Y3535000D02*
Y3565000D01*
X3860000Y3650000D02*
X3890000D01*
X3875000Y3635000D02*
Y3665000D01*
X3960000Y3650000D02*
X3990000D01*
X3975000Y3635000D02*
Y3665000D01*
X3960000Y3550000D02*
X3990000D01*
X3975000Y3535000D02*
Y3565000D01*
X3960000Y3450000D02*
X3990000D01*
X3975000Y3435000D02*
Y3465000D01*
X3960000Y3350000D02*
X3990000D01*
X3975000Y3335000D02*
Y3365000D01*
X3960000Y3750000D02*
X3990000D01*
X3975000Y3735000D02*
Y3765000D01*
X3860000Y3750000D02*
X3890000D01*
X3875000Y3735000D02*
Y3765000D01*
X2560000Y3100000D02*
X2590000D01*
X2575000Y3085000D02*
Y3115000D01*
X2560000Y3200000D02*
X2590000D01*
X2575000Y3185000D02*
Y3215000D01*
X2435000Y3100000D02*
X2465000D01*
X2450000Y3085000D02*
Y3115000D01*
X2435000Y3200000D02*
X2465000D01*
X2450000Y3185000D02*
Y3215000D01*
X4610000Y2450000D02*
X4640000D01*
X4625000Y2435000D02*
Y2465000D01*
X4735000Y2450000D02*
X4765000D01*
X4750000Y2435000D02*
Y2465000D01*
X4735000Y2825000D02*
X4765000D01*
X4750000Y2810000D02*
Y2840000D01*
X4735000Y2700000D02*
X4765000D01*
X4750000Y2685000D02*
Y2715000D01*
X4735000Y2575000D02*
X4765000D01*
X4750000Y2560000D02*
Y2590000D01*
X4610000Y2700000D02*
X4640000D01*
X4625000Y2685000D02*
Y2715000D01*
X4610000Y2825000D02*
X4640000D01*
X4625000Y2810000D02*
Y2840000D01*
X4610000Y2575000D02*
X4640000D01*
X4625000Y2560000D02*
Y2590000D01*
X2320000Y2375000D02*
X2380000D01*
X2350000Y2345000D02*
Y2405000D01*
X2385000Y2575000D02*
X2415000D01*
X2400000Y2560000D02*
Y2590000D01*
X2385000Y2475000D02*
X2415000D01*
X2400000Y2460000D02*
Y2490000D01*
X2510000Y2575000D02*
X2540000D01*
X2525000Y2560000D02*
Y2590000D01*
X2510000Y2475000D02*
X2540000D01*
X2525000Y2460000D02*
Y2490000D01*
X1160000Y3100000D02*
X1190000D01*
X1175000Y3085000D02*
Y3115000D01*
X1260000Y3100000D02*
X1290000D01*
X1275000Y3085000D02*
Y3115000D01*
X1260000Y2700000D02*
X1290000D01*
X1275000Y2685000D02*
Y2715000D01*
X1260000Y2800000D02*
X1290000D01*
X1275000Y2785000D02*
Y2815000D01*
X1260000Y2900000D02*
X1290000D01*
X1275000Y2885000D02*
Y2915000D01*
X1260000Y3000000D02*
X1290000D01*
X1275000Y2985000D02*
Y3015000D01*
X1160000Y3000000D02*
X1190000D01*
X1175000Y2985000D02*
Y3015000D01*
X1160000Y2900000D02*
X1190000D01*
X1175000Y2885000D02*
Y2915000D01*
X1160000Y2800000D02*
X1190000D01*
X1175000Y2785000D02*
Y2815000D01*
X1160000Y2700000D02*
X1190000D01*
X1175000Y2685000D02*
Y2715000D01*
X2460000Y4500000D02*
X2490000D01*
X2475000Y4485000D02*
Y4515000D01*
X2360000Y4500000D02*
X2390000D01*
X2375000Y4485000D02*
Y4515000D01*
X2260000Y4500000D02*
X2290000D01*
X2275000Y4485000D02*
Y4515000D01*
X2160000Y4500000D02*
X2190000D01*
X2175000Y4485000D02*
Y4515000D01*
X2160000Y4600000D02*
X2190000D01*
X2175000Y4585000D02*
Y4615000D01*
X2260000Y4600000D02*
X2290000D01*
X2275000Y4585000D02*
Y4615000D01*
X2360000Y4600000D02*
X2390000D01*
X2375000Y4585000D02*
Y4615000D01*
X2460000Y4600000D02*
X2490000D01*
X2475000Y4585000D02*
Y4615000D01*
X4114440Y5175000D02*
X4185560D01*
X4150000Y5139440D02*
Y5210560D01*
X3014440Y4200000D02*
X3085560D01*
X3050000Y4164440D02*
Y4235560D01*
X3485000Y4425000D02*
X3515000D01*
X3500000Y4410000D02*
Y4440000D01*
X3485000Y4550000D02*
X3515000D01*
X3500000Y4535000D02*
Y4565000D01*
X1060000Y4550000D02*
X1090000D01*
X1075000Y4535000D02*
Y4565000D01*
X1060000Y4450000D02*
X1090000D01*
X1075000Y4435000D02*
Y4465000D01*
X1060000Y4350000D02*
X1090000D01*
X1075000Y4335000D02*
Y4365000D01*
X1060000Y4250000D02*
X1090000D01*
X1075000Y4235000D02*
Y4265000D01*
X1060000Y4150000D02*
X1090000D01*
X1075000Y4135000D02*
Y4165000D01*
X3860000Y4425000D02*
X3890000D01*
X3875000Y4410000D02*
Y4440000D01*
X3735000Y4425000D02*
X3765000D01*
X3750000Y4410000D02*
Y4440000D01*
X3610000Y4425000D02*
X3640000D01*
X3625000Y4410000D02*
Y4440000D01*
X3610000Y4550000D02*
X3640000D01*
X3625000Y4535000D02*
Y4565000D01*
X3735000Y4550000D02*
X3765000D01*
X3750000Y4535000D02*
Y4565000D01*
X3860000Y4550000D02*
X3890000D01*
X3875000Y4535000D02*
Y4565000D01*
X5060000Y4475000D02*
X5090000D01*
X5075000Y4460000D02*
Y4490000D01*
X385000Y2275000D02*
X415000D01*
X400000Y2260000D02*
Y2290000D01*
X3035000Y3300000D02*
X3065000D01*
X3050000Y3285000D02*
Y3315000D01*
X2735000Y1225000D02*
X2765000D01*
X2750000Y1210000D02*
Y1240000D01*
X4335000Y2825000D02*
X4365000D01*
X4350000Y2810000D02*
Y2840000D01*
X3435000Y1675000D02*
X3465000D01*
X3450000Y1660000D02*
Y1690000D01*
X3360000Y1825000D02*
X3390000D01*
X3375000Y1810000D02*
Y1840000D01*
X2985000Y1225000D02*
X3015000D01*
X3000000Y1210000D02*
Y1240000D01*
X2860000Y1225000D02*
X2890000D01*
X2875000Y1210000D02*
Y1240000D01*
X2735000Y1100000D02*
X2765000D01*
X2750000Y1085000D02*
Y1115000D01*
X2860000Y1100000D02*
X2890000D01*
X2875000Y1085000D02*
Y1115000D01*
X2985000Y1100000D02*
X3015000D01*
X3000000Y1085000D02*
Y1115000D01*
X2610000Y1100000D02*
X2640000D01*
X2625000Y1085000D02*
Y1115000D01*
X2610000Y1225000D02*
X2640000D01*
X2625000Y1210000D02*
Y1240000D01*
%TF.MD5,c9d89341684cd393fb42b7280ac4fdc5*%
M02*
