%TF.GenerationSoftware,Altium Limited,Altium Designer,24.5.2 (23)*%
G04 Layer_Physical_Order=4*
G04 Layer_Color=16711680*
%FSLAX45Y45*%
%MOMM*%
%TF.SameCoordinates,36DB1FCB-C3D3-4704-BDE4-177FFF87CD08*%
%TF.FilePolarity,Positive*%
%TF.FileFunction,Copper,L4,Bot,Signal*%
%TF.Part,Single*%
G01*
G75*
%TA.AperFunction,SMDPad,CuDef*%
%ADD10R,0.93000X0.87000*%
%ADD16R,1.10000X1.00000*%
%ADD21R,1.44000X1.82000*%
%ADD25R,0.54000X0.60000*%
%ADD26R,0.87000X0.93000*%
%TA.AperFunction,Conductor*%
%ADD30C,0.30000*%
%ADD31C,0.60000*%
%ADD32C,0.40000*%
%ADD35C,0.25400*%
%TA.AperFunction,ComponentPad*%
%ADD36R,5.00000X5.00000*%
%ADD37C,1.70000*%
%ADD38R,1.70000X1.70000*%
%ADD39C,1.50000*%
%ADD40R,2.50000X2.50000*%
%ADD41C,2.50000*%
%ADD42C,3.71600*%
%ADD43R,3.71600X3.71600*%
%ADD44O,2.40000X1.20000*%
%ADD45R,3.71600X3.71600*%
%ADD46O,1.20000X2.40000*%
%TA.AperFunction,ViaPad*%
%ADD47C,0.60000*%
%ADD48C,1.00000*%
%ADD49C,1.27000*%
%TA.AperFunction,SMDPad,CuDef*%
%ADD51R,1.82000X1.44000*%
G04:AMPARAMS|DCode=52|XSize=1.11mm|YSize=1.47mm|CornerRadius=0.13875mm|HoleSize=0mm|Usage=FLASHONLY|Rotation=180.000|XOffset=0mm|YOffset=0mm|HoleType=Round|Shape=RoundedRectangle|*
%AMROUNDEDRECTD52*
21,1,1.11000,1.19250,0,0,180.0*
21,1,0.83250,1.47000,0,0,180.0*
1,1,0.27750,-0.41625,0.59625*
1,1,0.27750,0.41625,0.59625*
1,1,0.27750,0.41625,-0.59625*
1,1,0.27750,-0.41625,-0.59625*
%
%ADD52ROUNDEDRECTD52*%
%ADD53R,4.10000X4.10000*%
G04:AMPARAMS|DCode=54|XSize=0.93mm|YSize=1.31mm|CornerRadius=0.06975mm|HoleSize=0mm|Usage=FLASHONLY|Rotation=0.000|XOffset=0mm|YOffset=0mm|HoleType=Round|Shape=RoundedRectangle|*
%AMROUNDEDRECTD54*
21,1,0.93000,1.17050,0,0,0.0*
21,1,0.79050,1.31000,0,0,0.0*
1,1,0.13950,0.39525,-0.58525*
1,1,0.13950,-0.39525,-0.58525*
1,1,0.13950,-0.39525,0.58525*
1,1,0.13950,0.39525,0.58525*
%
%ADD54ROUNDEDRECTD54*%
G04:AMPARAMS|DCode=55|XSize=3.24mm|YSize=1.31mm|CornerRadius=0.09825mm|HoleSize=0mm|Usage=FLASHONLY|Rotation=0.000|XOffset=0mm|YOffset=0mm|HoleType=Round|Shape=RoundedRectangle|*
%AMROUNDEDRECTD55*
21,1,3.24000,1.11350,0,0,0.0*
21,1,3.04350,1.31000,0,0,0.0*
1,1,0.19650,1.52175,-0.55675*
1,1,0.19650,-1.52175,-0.55675*
1,1,0.19650,-1.52175,0.55675*
1,1,0.19650,1.52175,0.55675*
%
%ADD55ROUNDEDRECTD55*%
%ADD56R,0.60000X0.40000*%
%ADD57R,0.60000X0.25000*%
%ADD58R,0.25000X0.60000*%
%ADD59R,1.70000X0.25000*%
%ADD60C,0.34991*%
%ADD61R,2.10000X0.40000*%
%ADD62R,1.00000X1.10000*%
G36*
X5593768Y5971403D02*
X5654496Y5955131D01*
X5712582Y5931071D01*
X5767028Y5899637D01*
X5816906Y5861363D01*
X5861363Y5816907D01*
X5899637Y5767028D01*
X5931071Y5712582D01*
X5955131Y5654495D01*
X5971403Y5593768D01*
X5979609Y5531435D01*
Y5500000D01*
Y500000D01*
Y468564D01*
X5971403Y406232D01*
X5955131Y345503D01*
X5931071Y287418D01*
X5899637Y232972D01*
X5861363Y183094D01*
X5816907Y138637D01*
X5767028Y100363D01*
X5712582Y68929D01*
X5654495Y44868D01*
X5593768Y28597D01*
X5531435Y20391D01*
X4865660D01*
X4864994Y30551D01*
X4873315Y31646D01*
X4890383Y38716D01*
X4905038Y49962D01*
X4905068Y50000D01*
X4910000D01*
Y56427D01*
X4916284Y64617D01*
X4923354Y81685D01*
X4925765Y100000D01*
Y220000D01*
X4923354Y238316D01*
X4916284Y255383D01*
X4910000Y263573D01*
Y270000D01*
X4905068D01*
X4905038Y270039D01*
X4890383Y281285D01*
X4873315Y288354D01*
X4855000Y290765D01*
X4836685Y288354D01*
X4819617Y281285D01*
X4804961Y270039D01*
X4804932Y270000D01*
X4800000D01*
Y263573D01*
X4793716Y255383D01*
X4786646Y238316D01*
X4784235Y220000D01*
Y100000D01*
X4786646Y81685D01*
X4793716Y64617D01*
X4800000Y56427D01*
Y50000D01*
X4804932D01*
X4804961Y49962D01*
X4819617Y38716D01*
X4836685Y31646D01*
X4845006Y30551D01*
X4844340Y20391D01*
X3515660D01*
X3514994Y30551D01*
X3523316Y31646D01*
X3540383Y38716D01*
X3555039Y49962D01*
X3555068Y50000D01*
X3560000D01*
Y56427D01*
X3566284Y64617D01*
X3573354Y81685D01*
X3575765Y100000D01*
Y220000D01*
X3573354Y238316D01*
X3566284Y255383D01*
X3560000Y263573D01*
Y270000D01*
X3555068D01*
X3555039Y270039D01*
X3540383Y281285D01*
X3523316Y288354D01*
X3505000Y290765D01*
X3486685Y288354D01*
X3469617Y281285D01*
X3454962Y270039D01*
X3454932Y270000D01*
X3450000D01*
Y263573D01*
X3443716Y255383D01*
X3436646Y238316D01*
X3434235Y220000D01*
Y100000D01*
X3436646Y81685D01*
X3443716Y64617D01*
X3450000Y56427D01*
Y50000D01*
X3454932D01*
X3454962Y49962D01*
X3469617Y38716D01*
X3486685Y31646D01*
X3495006Y30551D01*
X3494340Y20391D01*
X468564D01*
X406232Y28597D01*
X345503Y44869D01*
X287418Y68929D01*
X232972Y100363D01*
X183094Y138636D01*
X138637Y183093D01*
X100363Y232972D01*
X68929Y287418D01*
X44868Y345505D01*
X28597Y406232D01*
X20391Y468564D01*
Y500000D01*
Y5500000D01*
Y5531435D01*
X28597Y5593768D01*
X44869Y5654496D01*
X68929Y5712582D01*
X100363Y5767028D01*
X138636Y5816906D01*
X183093Y5861363D01*
X232972Y5899637D01*
X287418Y5931071D01*
X345505Y5955131D01*
X406232Y5971403D01*
X468564Y5979609D01*
X5531435D01*
X5593768Y5971403D01*
D02*
G37*
%LPC*%
G36*
X3758494Y5942700D02*
X3741507D01*
X3725813Y5936199D01*
X3713801Y5924187D01*
X3707300Y5908493D01*
Y5891506D01*
X3713801Y5875812D01*
X3725813Y5863801D01*
X3741507Y5857300D01*
X3758494D01*
X3774188Y5863801D01*
X3786199Y5875812D01*
X3792700Y5891506D01*
Y5908493D01*
X3786199Y5924187D01*
X3774188Y5936199D01*
X3758494Y5942700D01*
D02*
G37*
G36*
X4283494Y5717700D02*
X4266507D01*
X4250813Y5711199D01*
X4238801Y5699187D01*
X4232300Y5683494D01*
Y5666507D01*
X4238801Y5650813D01*
X4250813Y5638801D01*
X4266507Y5632300D01*
X4283494D01*
X4299187Y5638801D01*
X4311199Y5650813D01*
X4317700Y5666507D01*
Y5683494D01*
X4311199Y5699187D01*
X4299187Y5711199D01*
X4283494Y5717700D01*
D02*
G37*
G36*
X2683493D02*
X2666506D01*
X2650813Y5711199D01*
X2638801Y5699187D01*
X2632300Y5683494D01*
Y5666507D01*
X2638801Y5650813D01*
X2650813Y5638801D01*
X2666506Y5632300D01*
X2683493D01*
X2699187Y5638801D01*
X2711199Y5650813D01*
X2717700Y5666507D01*
Y5683494D01*
X2711199Y5699187D01*
X2699187Y5711199D01*
X2683493Y5717700D01*
D02*
G37*
G36*
X2502256Y5886991D02*
X1981936D01*
Y5366670D01*
X2502256D01*
Y5886991D01*
D02*
G37*
G36*
X1486256D02*
X965936D01*
Y5366670D01*
X1486256D01*
Y5886991D01*
D02*
G37*
G36*
X5517236Y5675000D02*
X5482764D01*
X5448954Y5668275D01*
X5417106Y5655083D01*
X5388444Y5635931D01*
X5364069Y5611556D01*
X5344917Y5582894D01*
X5331725Y5551046D01*
X5325000Y5517236D01*
Y5482764D01*
X5331725Y5448954D01*
X5344917Y5417106D01*
X5364069Y5388444D01*
X5388444Y5364069D01*
X5417106Y5344917D01*
X5448954Y5331725D01*
X5482764Y5325000D01*
X5517236D01*
X5551046Y5331725D01*
X5582894Y5344917D01*
X5611556Y5364069D01*
X5635931Y5388444D01*
X5655083Y5417106D01*
X5668275Y5448954D01*
X5675000Y5482764D01*
Y5517236D01*
X5668275Y5551046D01*
X5655083Y5582894D01*
X5635931Y5611556D01*
X5611556Y5635931D01*
X5582894Y5655083D01*
X5551046Y5668275D01*
X5517236Y5675000D01*
D02*
G37*
G36*
X517236D02*
X482764D01*
X448954Y5668275D01*
X417106Y5655083D01*
X388444Y5635931D01*
X364069Y5611556D01*
X344917Y5582894D01*
X331725Y5551046D01*
X325000Y5517236D01*
Y5482764D01*
X331725Y5448954D01*
X344917Y5417106D01*
X364069Y5388444D01*
X388444Y5364069D01*
X417106Y5344917D01*
X448954Y5331725D01*
X482764Y5325000D01*
X517236D01*
X551046Y5331725D01*
X582894Y5344917D01*
X611556Y5364069D01*
X635931Y5388444D01*
X655083Y5417106D01*
X668275Y5448954D01*
X675000Y5482764D01*
Y5517236D01*
X668275Y5551046D01*
X655083Y5582894D01*
X635931Y5611556D01*
X611556Y5635931D01*
X582894Y5655083D01*
X551046Y5668275D01*
X517236Y5675000D01*
D02*
G37*
G36*
X4008493Y5392700D02*
X3991506D01*
X3975812Y5386199D01*
X3963801Y5374187D01*
X3957300Y5358493D01*
Y5341506D01*
X3963801Y5325813D01*
X3975812Y5313801D01*
X3991506Y5307300D01*
X4008493D01*
X4024187Y5313801D01*
X4036199Y5325813D01*
X4042700Y5341506D01*
Y5358493D01*
X4036199Y5374187D01*
X4024187Y5386199D01*
X4008493Y5392700D01*
D02*
G37*
G36*
X1572175Y5110051D02*
X1267825D01*
X1260027Y5108500D01*
X1253416Y5104083D01*
X1249000Y5097472D01*
X1247448Y5089675D01*
Y4978325D01*
X1249000Y4970527D01*
X1253416Y4963916D01*
X1260027Y4959499D01*
X1267825Y4957948D01*
X1572175D01*
X1579972Y4959499D01*
X1586583Y4963916D01*
X1591000Y4970527D01*
X1592551Y4978325D01*
Y5089675D01*
X1591000Y5097472D01*
X1586583Y5104083D01*
X1579972Y5108500D01*
X1572175Y5110051D01*
D02*
G37*
G36*
X3206625Y5084131D02*
X3123375D01*
X3113997Y5082265D01*
X3106047Y5076953D01*
X3100734Y5069003D01*
X3098869Y5059625D01*
Y4940375D01*
X3100734Y4930997D01*
X3106047Y4923047D01*
X3113997Y4917734D01*
X3123375Y4915869D01*
X3206625D01*
X3216003Y4917734D01*
X3223953Y4923047D01*
X3229266Y4930997D01*
X3231131Y4940375D01*
Y4959053D01*
X3362274D01*
X3366507Y4957300D01*
X3383494D01*
X3399188Y4963801D01*
X3411199Y4975813D01*
X3417700Y4991506D01*
Y5008493D01*
X3411199Y5024187D01*
X3399188Y5036199D01*
X3383494Y5042700D01*
X3366507D01*
X3362274Y5040947D01*
X3231131D01*
Y5059625D01*
X3229266Y5069003D01*
X3223953Y5076953D01*
X3216003Y5082265D01*
X3206625Y5084131D01*
D02*
G37*
G36*
X4275000Y5260997D02*
X3850000D01*
X3842224Y5257776D01*
X3817224Y5232776D01*
X3814003Y5225000D01*
Y5075000D01*
X3817224Y5067224D01*
X3917224Y4967224D01*
X3925000Y4964003D01*
X4239473D01*
X4239617Y4963788D01*
X4234186Y4953628D01*
X4073840D01*
Y4915947D01*
X3937726D01*
X3933494Y4917700D01*
X3916507D01*
X3900813Y4911199D01*
X3888801Y4899187D01*
X3882300Y4883493D01*
Y4866506D01*
X3888801Y4850812D01*
X3900813Y4838801D01*
X3916507Y4832300D01*
X3933494D01*
X3937726Y4834053D01*
X4073840D01*
Y4789308D01*
X4065052Y4785997D01*
X3355000D01*
X3347224Y4782776D01*
X3285000Y4720552D01*
X3272776Y4732776D01*
X3265000Y4735997D01*
X3095188D01*
X3085997Y4743188D01*
Y5075000D01*
X3082776Y5082776D01*
X3032777Y5132776D01*
X3032776Y5132776D01*
X3025000Y5135997D01*
X2865000D01*
X2857224Y5132776D01*
X2667224Y4942776D01*
X2664003Y4935000D01*
Y4519555D01*
X2637224Y4492776D01*
X2634003Y4485000D01*
Y4329485D01*
X2624616Y4325597D01*
X2604937Y4345276D01*
X2597161Y4348497D01*
X2362499D01*
X2354723Y4345276D01*
X2217224Y4207776D01*
X2214003Y4200000D01*
Y4112500D01*
X2217224Y4104724D01*
X2304724Y4017224D01*
X2312500Y4014003D01*
X2612499Y4014003D01*
X2999999D01*
X3000489Y4014206D01*
X3000995Y4014048D01*
X3004313Y4015790D01*
X3007776Y4017224D01*
X3007978Y4017714D01*
X3008448Y4017960D01*
X3158130Y4197577D01*
X3168773Y4208220D01*
X3170820Y4208628D01*
X3297224Y4082224D01*
X3305000Y4079003D01*
X4115000Y4079002D01*
X4122776Y4082223D01*
X4134338Y4093785D01*
X4140015Y4094025D01*
X4146051Y4092224D01*
X4148072Y4091387D01*
X4149619Y4089840D01*
X4151806D01*
X4153827Y4089003D01*
X4461538D01*
X4468340Y4081660D01*
X4468340Y4078842D01*
Y4065947D01*
X4312726D01*
X4308494Y4067700D01*
X4291507D01*
X4275813Y4061199D01*
X4263801Y4049187D01*
X4257300Y4033494D01*
Y4016507D01*
X4263801Y4000813D01*
X4275813Y3988801D01*
X4291507Y3982300D01*
X4308494D01*
X4312726Y3984053D01*
X4468340D01*
Y3968340D01*
X4575660D01*
X4575660Y4080777D01*
X4576949Y4082097D01*
X4578843Y4082741D01*
X4589003Y4075461D01*
X4589002Y3715000D01*
X4592223Y3707224D01*
X4599999Y3704003D01*
X4735000D01*
X4742776Y3707224D01*
X4932776Y3897224D01*
X4935997Y3905000D01*
Y4320445D01*
X4962776Y4347224D01*
X4965997Y4355000D01*
Y4542500D01*
X4964464Y4546202D01*
X4963081Y4549960D01*
X4958709Y4554696D01*
X4962784Y4564003D01*
X5225004Y4564006D01*
X5232780Y4567227D01*
X5307776Y4642223D01*
X5310997Y4649999D01*
X5310997Y4699998D01*
X5307776Y4707774D01*
X5232776Y4782776D01*
X5225000Y4785997D01*
X4654555D01*
X4435997Y5004555D01*
Y5062645D01*
X4438977Y5065189D01*
X4446157Y5069076D01*
X4451825Y5067948D01*
X4756175D01*
X4763973Y5069500D01*
X4770583Y5073916D01*
X4775000Y5080527D01*
X4776551Y5088325D01*
Y5199675D01*
X4775000Y5207473D01*
X4770583Y5214083D01*
X4763973Y5218500D01*
X4756175Y5220051D01*
X4451825D01*
X4444027Y5218500D01*
X4437417Y5214083D01*
X4433000Y5207473D01*
X4431449Y5199675D01*
Y5122379D01*
X4422062Y5118491D01*
X4282776Y5257776D01*
X4275000Y5260997D01*
D02*
G37*
G36*
X2625660Y4906660D02*
X2518340D01*
Y4890947D01*
X2387726D01*
X2383494Y4892700D01*
X2366507D01*
X2350813Y4886199D01*
X2338801Y4874187D01*
X2332300Y4858493D01*
Y4841506D01*
X2338801Y4825813D01*
X2350813Y4813801D01*
X2366507Y4807300D01*
X2383494D01*
X2387726Y4809053D01*
X2518340D01*
Y4793340D01*
X2625660D01*
Y4906660D01*
D02*
G37*
G36*
X5133493Y5292700D02*
X5116506D01*
X5100813Y5286199D01*
X5088801Y5274187D01*
X5082300Y5258493D01*
Y5241506D01*
X5088801Y5225813D01*
X5100813Y5213801D01*
X5101692Y5213437D01*
Y5040760D01*
X5023840D01*
Y4876440D01*
X5226160D01*
Y5040760D01*
X5148308D01*
Y5213437D01*
X5149187Y5213801D01*
X5161199Y5225813D01*
X5167700Y5241506D01*
Y5258493D01*
X5161199Y5274187D01*
X5149187Y5286199D01*
X5133493Y5292700D01*
D02*
G37*
G36*
X1933493Y5167700D02*
X1916506D01*
X1900813Y5161199D01*
X1888801Y5149187D01*
X1882300Y5133493D01*
Y5116506D01*
X1884053Y5112274D01*
Y4935191D01*
X1873840D01*
Y4770871D01*
X2076159D01*
Y4935191D01*
X1965947D01*
Y5112274D01*
X1967700Y5116506D01*
Y5133493D01*
X1961199Y5149187D01*
X1949187Y5161199D01*
X1933493Y5167700D01*
D02*
G37*
G36*
X933493Y5117700D02*
X916506D01*
X900813Y5111199D01*
X888801Y5099187D01*
X882300Y5083494D01*
Y5066507D01*
X884053Y5062274D01*
Y4920859D01*
X818840D01*
Y4756539D01*
X1021160D01*
Y4920859D01*
X965947D01*
Y5062274D01*
X967700Y5066507D01*
Y5083494D01*
X961199Y5099187D01*
X949187Y5111199D01*
X933493Y5117700D01*
D02*
G37*
G36*
X2465000Y4745997D02*
X1410000D01*
X1402224Y4742776D01*
X1400662Y4741215D01*
X1394986Y4740975D01*
X1388949Y4742776D01*
X1386928Y4743613D01*
X1385381Y4745160D01*
X1383194D01*
X1381173Y4745997D01*
X910000D01*
X902224Y4742776D01*
X752224Y4592776D01*
X749003Y4585000D01*
Y4157500D01*
X752224Y4149723D01*
X884724Y4017224D01*
X892500Y4014003D01*
X1025000D01*
X1032776Y4017224D01*
X1175000Y4159447D01*
X1175000Y4159448D01*
X1217224Y4117224D01*
X1225001Y4114003D01*
X1450000D01*
X1457776Y4117224D01*
X1469616Y4129063D01*
X1479002Y4125175D01*
Y3745000D01*
X1482223Y3737224D01*
X1577223Y3642224D01*
X1585000Y3639003D01*
X1649998D01*
X1657774Y3642223D01*
X1687776Y3672223D01*
X1690997Y3679999D01*
Y4255445D01*
X1717776Y4282224D01*
X1720997Y4290000D01*
Y4440000D01*
X1717776Y4447776D01*
X1670936Y4494616D01*
X1674824Y4504003D01*
X1705445D01*
X1752224Y4457224D01*
X1760000Y4454003D01*
X2142500Y4454002D01*
X2490000D01*
X2497776Y4457223D01*
X2532776Y4492223D01*
X2535997Y4499999D01*
X2535997Y4675000D01*
X2532776Y4682776D01*
X2472776Y4742776D01*
X2465000Y4745997D01*
D02*
G37*
G36*
X5083494Y4517700D02*
X5066507D01*
X5050813Y4511199D01*
X5038801Y4499187D01*
X5032300Y4483493D01*
Y4466506D01*
X5038801Y4450813D01*
X5050813Y4438801D01*
X5066507Y4432300D01*
X5083494D01*
X5099187Y4438801D01*
X5111199Y4450813D01*
X5117700Y4466506D01*
Y4483493D01*
X5111199Y4499187D01*
X5099187Y4511199D01*
X5083494Y4517700D01*
D02*
G37*
G36*
X1828380Y4118120D02*
X1721060D01*
Y4004800D01*
X1828380D01*
Y4020513D01*
X1983995D01*
X1988227Y4018760D01*
X2005214D01*
X2020908Y4025261D01*
X2032919Y4037273D01*
X2039420Y4052966D01*
Y4069954D01*
X2032919Y4085647D01*
X2020908Y4097659D01*
X2005214Y4104160D01*
X1988227D01*
X1983995Y4102407D01*
X1828380D01*
Y4118120D01*
D02*
G37*
G36*
X3551160Y3992961D02*
X3348840D01*
Y3965947D01*
X3137726D01*
X3133494Y3967700D01*
X3116507D01*
X3100813Y3961199D01*
X3088801Y3949187D01*
X3082300Y3933494D01*
Y3916507D01*
X3088801Y3900813D01*
X3100813Y3888801D01*
X3116507Y3882300D01*
X3133494D01*
X3137726Y3884053D01*
X3348840D01*
Y3828641D01*
X3551160D01*
Y3992961D01*
D02*
G37*
G36*
X2017634Y3982240D02*
X2000646D01*
X1984953Y3975739D01*
X1972941Y3963727D01*
X1971188Y3959495D01*
X1898199Y3886507D01*
X1849211D01*
Y3905185D01*
X1847346Y3914563D01*
X1842033Y3922513D01*
X1834083Y3927826D01*
X1824705Y3929691D01*
X1741455D01*
X1732077Y3927826D01*
X1724127Y3922513D01*
X1718814Y3914563D01*
X1716949Y3905185D01*
Y3785935D01*
X1718814Y3776557D01*
X1724127Y3768607D01*
X1732077Y3763294D01*
X1741455Y3761429D01*
X1824705D01*
X1834083Y3763294D01*
X1842033Y3768607D01*
X1847346Y3776557D01*
X1849211Y3785935D01*
Y3804613D01*
X1915160D01*
X1930830Y3807730D01*
X1944114Y3816606D01*
X2029095Y3901588D01*
X2033327Y3903341D01*
X2045339Y3915353D01*
X2051840Y3931046D01*
Y3948034D01*
X2045339Y3963727D01*
X2033327Y3975739D01*
X2017634Y3982240D01*
D02*
G37*
G36*
X2551160Y3998560D02*
X2348840D01*
Y3834240D01*
X2551160D01*
Y3884053D01*
X2637274D01*
X2641507Y3882300D01*
X2658494D01*
X2674187Y3888801D01*
X2686199Y3900813D01*
X2692700Y3916507D01*
Y3933494D01*
X2686199Y3949187D01*
X2674187Y3961199D01*
X2658494Y3967700D01*
X2641507D01*
X2637274Y3965947D01*
X2551160D01*
Y3998560D01*
D02*
G37*
G36*
X4541625Y3909131D02*
X4458375D01*
X4448997Y3907265D01*
X4441046Y3901953D01*
X4435734Y3894003D01*
X4433869Y3884625D01*
Y3865947D01*
X4312726D01*
X4308494Y3867700D01*
X4291507D01*
X4275813Y3861199D01*
X4263801Y3849187D01*
X4257300Y3833493D01*
Y3816506D01*
X4263801Y3800813D01*
X4275813Y3788801D01*
X4291507Y3782300D01*
X4308494D01*
X4312726Y3784053D01*
X4433869D01*
Y3765375D01*
X4435734Y3755997D01*
X4441046Y3748047D01*
X4448997Y3742734D01*
X4458375Y3740869D01*
X4541625D01*
X4551003Y3742734D01*
X4558953Y3748047D01*
X4564265Y3755997D01*
X4566131Y3765375D01*
Y3884625D01*
X4564265Y3894003D01*
X4558953Y3901953D01*
X4551003Y3907265D01*
X4541625Y3909131D01*
D02*
G37*
G36*
X3983493Y3792700D02*
X3966506D01*
X3950813Y3786199D01*
X3938801Y3774188D01*
X3932300Y3758494D01*
Y3741507D01*
X3938801Y3725813D01*
X3950813Y3713801D01*
X3966506Y3707300D01*
X3983493D01*
X3999187Y3713801D01*
X4011199Y3725813D01*
X4017700Y3741507D01*
Y3758494D01*
X4011199Y3774188D01*
X3999187Y3786199D01*
X3983493Y3792700D01*
D02*
G37*
G36*
X3883493D02*
X3866506D01*
X3850812Y3786199D01*
X3838801Y3774188D01*
X3832300Y3758494D01*
Y3741507D01*
X3838801Y3725813D01*
X3850812Y3713801D01*
X3866506Y3707300D01*
X3883493D01*
X3899187Y3713801D01*
X3911199Y3725813D01*
X3917700Y3741507D01*
Y3758494D01*
X3911199Y3774188D01*
X3899187Y3786199D01*
X3883493Y3792700D01*
D02*
G37*
G36*
X3152174Y3766552D02*
X2847824D01*
X2840027Y3765000D01*
X2833416Y3760584D01*
X2828999Y3753973D01*
X2827448Y3746175D01*
Y3653146D01*
X2817288Y3646357D01*
X2808493Y3650000D01*
X2791506D01*
X2775813Y3643499D01*
X2763801Y3631488D01*
X2757300Y3615794D01*
Y3598807D01*
X2763801Y3583113D01*
X2775813Y3571101D01*
X2786147Y3566820D01*
X2784126Y3556660D01*
X2743340D01*
Y3449340D01*
X2856660D01*
Y3461558D01*
X2939148D01*
X2943380Y3459805D01*
X2960367D01*
X2976061Y3466305D01*
X2988073Y3478317D01*
X2994573Y3494011D01*
Y3510998D01*
X2988073Y3526692D01*
X2976061Y3538704D01*
X2960367Y3545204D01*
X2943380D01*
X2939148Y3543451D01*
X2856660D01*
Y3556660D01*
X2815874D01*
X2813853Y3566820D01*
X2824187Y3571101D01*
X2836199Y3583113D01*
X2842700Y3598807D01*
Y3610243D01*
X2847825Y3614449D01*
X3152174D01*
X3159972Y3616000D01*
X3166583Y3620417D01*
X3171000Y3627027D01*
X3172551Y3634825D01*
Y3746175D01*
X3171000Y3753973D01*
X3166583Y3760584D01*
X3159972Y3765000D01*
X3152174Y3766552D01*
D02*
G37*
G36*
X3983493Y3692700D02*
X3966506D01*
X3950813Y3686199D01*
X3938801Y3674187D01*
X3932300Y3658494D01*
Y3641507D01*
X3938801Y3625813D01*
X3950813Y3613801D01*
X3966506Y3607300D01*
X3983493D01*
X3999187Y3613801D01*
X4011199Y3625813D01*
X4017700Y3641507D01*
Y3658494D01*
X4011199Y3674187D01*
X3999187Y3686199D01*
X3983493Y3692700D01*
D02*
G37*
G36*
X3883493D02*
X3866506D01*
X3850812Y3686199D01*
X3838801Y3674187D01*
X3832300Y3658494D01*
Y3641507D01*
X3838801Y3625813D01*
X3850812Y3613801D01*
X3866506Y3607300D01*
X3883493D01*
X3899187Y3613801D01*
X3911199Y3625813D01*
X3917700Y3641507D01*
Y3658494D01*
X3911199Y3674187D01*
X3899187Y3686199D01*
X3883493Y3692700D01*
D02*
G37*
G36*
X5833900Y3745765D02*
X5713900D01*
X5695584Y3743354D01*
X5678517Y3736284D01*
X5670327Y3730000D01*
X5663900D01*
Y3725068D01*
X5663861Y3725039D01*
X5652616Y3710383D01*
X5645546Y3693315D01*
X5643135Y3675000D01*
X5645546Y3656685D01*
X5652616Y3639617D01*
X5663861Y3624962D01*
X5663900Y3624932D01*
Y3620000D01*
X5670327D01*
X5678517Y3613716D01*
X5695584Y3606646D01*
X5713900Y3604235D01*
X5833900D01*
X5852216Y3606646D01*
X5869283Y3613716D01*
X5877473Y3620000D01*
X5883900D01*
Y3624932D01*
X5883939Y3624962D01*
X5895185Y3639617D01*
X5902254Y3656685D01*
X5904665Y3675000D01*
X5902254Y3693315D01*
X5895185Y3710383D01*
X5883939Y3725039D01*
X5883900Y3725068D01*
Y3730000D01*
X5877473D01*
X5869283Y3736284D01*
X5852216Y3743354D01*
X5833900Y3745765D01*
D02*
G37*
G36*
X3983493Y3592700D02*
X3966506D01*
X3950813Y3586199D01*
X3938801Y3574188D01*
X3932300Y3558494D01*
Y3541507D01*
X3938801Y3525813D01*
X3950813Y3513801D01*
X3966506Y3507300D01*
X3983493D01*
X3999187Y3513801D01*
X4011199Y3525813D01*
X4017700Y3541507D01*
Y3558494D01*
X4011199Y3574188D01*
X3999187Y3586199D01*
X3983493Y3592700D01*
D02*
G37*
G36*
X3883493D02*
X3866506D01*
X3850812Y3586199D01*
X3838801Y3574188D01*
X3832300Y3558494D01*
Y3541507D01*
X3838801Y3525813D01*
X3850812Y3513801D01*
X3866506Y3507300D01*
X3883493D01*
X3899187Y3513801D01*
X3911199Y3525813D01*
X3917700Y3541507D01*
Y3558494D01*
X3911199Y3574188D01*
X3899187Y3586199D01*
X3883493Y3592700D01*
D02*
G37*
G36*
X3983493Y3492700D02*
X3966506D01*
X3950813Y3486199D01*
X3938801Y3474188D01*
X3932300Y3458494D01*
Y3441507D01*
X3938801Y3425813D01*
X3950813Y3413801D01*
X3966506Y3407300D01*
X3983493D01*
X3999187Y3413801D01*
X4011199Y3425813D01*
X4017700Y3441507D01*
Y3458494D01*
X4011199Y3474188D01*
X3999187Y3486199D01*
X3983493Y3492700D01*
D02*
G37*
G36*
X3883493D02*
X3866506D01*
X3850812Y3486199D01*
X3838801Y3474188D01*
X3832300Y3458494D01*
Y3441507D01*
X3838801Y3425813D01*
X3850812Y3413801D01*
X3866506Y3407300D01*
X3883493D01*
X3899187Y3413801D01*
X3911199Y3425813D01*
X3917700Y3441507D01*
Y3458494D01*
X3911199Y3474188D01*
X3899187Y3486199D01*
X3883493Y3492700D01*
D02*
G37*
G36*
X3983493Y3392700D02*
X3966506D01*
X3950813Y3386199D01*
X3938801Y3374188D01*
X3932300Y3358494D01*
Y3341507D01*
X3938801Y3325813D01*
X3950813Y3313801D01*
X3966506Y3307300D01*
X3983493D01*
X3999187Y3313801D01*
X4011199Y3325813D01*
X4017700Y3341507D01*
Y3358494D01*
X4011199Y3374188D01*
X3999187Y3386199D01*
X3983493Y3392700D01*
D02*
G37*
G36*
X3883493D02*
X3866506D01*
X3850812Y3386199D01*
X3838801Y3374188D01*
X3832300Y3358494D01*
Y3341507D01*
X3838801Y3325813D01*
X3850812Y3313801D01*
X3866506Y3307300D01*
X3883493D01*
X3899187Y3313801D01*
X3911199Y3325813D01*
X3917700Y3341507D01*
Y3358494D01*
X3911199Y3374188D01*
X3899187Y3386199D01*
X3883493Y3392700D01*
D02*
G37*
G36*
X745160Y3495160D02*
X554840D01*
Y3304840D01*
X745160D01*
Y3495160D01*
D02*
G37*
G36*
X4183494Y3367700D02*
X4166507D01*
X4150813Y3361199D01*
X4138801Y3349187D01*
X4132300Y3333493D01*
Y3316506D01*
X4138801Y3300813D01*
X4150813Y3288801D01*
X4166507Y3282300D01*
X4183494D01*
X4199187Y3288801D01*
X4211199Y3300813D01*
X4217700Y3316506D01*
Y3333493D01*
X4211199Y3349187D01*
X4199187Y3361199D01*
X4183494Y3367700D01*
D02*
G37*
G36*
X3058494Y3342700D02*
X3041506D01*
X3025813Y3336199D01*
X3013801Y3324187D01*
X3007300Y3308494D01*
Y3291506D01*
X3013801Y3275813D01*
X3025813Y3263801D01*
X3041506Y3257300D01*
X3058494D01*
X3074187Y3263801D01*
X3086199Y3275813D01*
X3092700Y3291506D01*
Y3308494D01*
X3086199Y3324187D01*
X3074187Y3336199D01*
X3058494Y3342700D01*
D02*
G37*
G36*
X3083493Y3192700D02*
X3066506D01*
X3050813Y3186199D01*
X3041537Y3176924D01*
X3021175D01*
X3021173Y3176924D01*
X3009405Y3174583D01*
X2999429Y3167917D01*
X2999429Y3167917D01*
X2978056Y3146544D01*
X2971390Y3136568D01*
X2969049Y3124800D01*
X2969049Y3124799D01*
Y3059660D01*
X2943140D01*
Y2952340D01*
X3056460D01*
Y3059660D01*
X3030551D01*
Y3112062D01*
X3033911Y3115423D01*
X3049191D01*
X3050813Y3113801D01*
X3066506Y3107300D01*
X3083493D01*
X3099187Y3113801D01*
X3111199Y3125813D01*
X3117700Y3141507D01*
Y3158494D01*
X3111199Y3174187D01*
X3099187Y3186199D01*
X3083493Y3192700D01*
D02*
G37*
G36*
X5193200Y3555960D02*
X5154600D01*
X5116741Y3548430D01*
X5081078Y3533658D01*
X5048983Y3512212D01*
X5021688Y3484917D01*
X5000242Y3452822D01*
X4985471Y3417160D01*
X4977940Y3379301D01*
Y3340700D01*
X4985471Y3302841D01*
X5000242Y3267178D01*
X5021688Y3235083D01*
X5048983Y3207788D01*
X5081078Y3186343D01*
X5116741Y3171571D01*
X5154600Y3164040D01*
X5193200D01*
X5231059Y3171571D01*
X5266722Y3186343D01*
X5298817Y3207788D01*
X5326112Y3235083D01*
X5347558Y3267178D01*
X5362329Y3302841D01*
X5369860Y3340700D01*
Y3379301D01*
X5362329Y3417160D01*
X5347558Y3452822D01*
X5326112Y3484917D01*
X5298817Y3512212D01*
X5266722Y3533658D01*
X5231059Y3548430D01*
X5193200Y3555960D01*
D02*
G37*
G36*
X3239960Y3078260D02*
X3119640D01*
Y2947940D01*
X3239960D01*
Y2980226D01*
X3383448D01*
X3387680Y2978473D01*
X3404667D01*
X3420361Y2984974D01*
X3432372Y2996986D01*
X3438873Y3012680D01*
Y3029667D01*
X3432372Y3045361D01*
X3420361Y3057372D01*
X3404667Y3063873D01*
X3387680D01*
X3383448Y3062120D01*
X3239960D01*
Y3078260D01*
D02*
G37*
G36*
X3798560Y2901160D02*
X3634240D01*
Y2840947D01*
X3512726D01*
X3508494Y2842700D01*
X3491507D01*
X3475813Y2836199D01*
X3463801Y2824187D01*
X3457300Y2808493D01*
Y2791506D01*
X3463801Y2775813D01*
X3475813Y2763801D01*
X3491507Y2757300D01*
X3508494D01*
X3512726Y2759053D01*
X3634240D01*
Y2698840D01*
X3798560D01*
Y2901160D01*
D02*
G37*
G36*
X2025000Y3535997D02*
X1099999Y3535997D01*
X1092223Y3532776D01*
X1017224Y3457776D01*
X1014003Y3450000D01*
X1014003Y2554555D01*
X967223Y2507776D01*
X966291Y2505525D01*
X956131Y2507545D01*
Y2529625D01*
X954265Y2539003D01*
X948953Y2546953D01*
X941003Y2552265D01*
X931625Y2554131D01*
X848375D01*
X838997Y2552265D01*
X831046Y2546953D01*
X825734Y2539003D01*
X823869Y2529625D01*
Y2513447D01*
X468761D01*
X458494Y2517700D01*
X441507D01*
X425813Y2511199D01*
X413801Y2499187D01*
X407300Y2483493D01*
Y2466506D01*
X413801Y2450812D01*
X425813Y2438801D01*
X441507Y2432300D01*
X448746D01*
X452500Y2431553D01*
X823869D01*
Y2410375D01*
X825734Y2400997D01*
X831046Y2393047D01*
X838997Y2387734D01*
X848375Y2385869D01*
X931625D01*
X941003Y2387734D01*
X948953Y2393047D01*
X953842Y2400364D01*
X954587Y2400472D01*
X964002Y2394979D01*
Y2256073D01*
X953842Y2255072D01*
X953749Y2255541D01*
X948437Y2263492D01*
X940487Y2268804D01*
X931109Y2270669D01*
X847859D01*
X838481Y2268804D01*
X830530Y2263492D01*
X825218Y2255541D01*
X823353Y2246163D01*
Y2237120D01*
X471964D01*
X458494Y2242700D01*
X442455D01*
X439086Y2246762D01*
X436542Y2251641D01*
X442700Y2266507D01*
Y2283494D01*
X436199Y2299187D01*
X424187Y2311199D01*
X408493Y2317700D01*
X391506D01*
X375813Y2311199D01*
X363801Y2299187D01*
X357300Y2283494D01*
Y2266507D01*
X363801Y2250813D01*
X375813Y2238801D01*
X391506Y2232300D01*
X407545D01*
X410914Y2228238D01*
X413458Y2223359D01*
X407300Y2208493D01*
Y2191506D01*
X413801Y2175813D01*
X425813Y2163801D01*
X436802Y2159249D01*
X438157Y2158343D01*
X439756Y2158025D01*
X441507Y2157300D01*
X443402D01*
X453827Y2155226D01*
X823353D01*
Y2126913D01*
X825218Y2117535D01*
X830530Y2109585D01*
X838481Y2104273D01*
X847859Y2102407D01*
X931109D01*
X940487Y2104273D01*
X948437Y2109585D01*
X953749Y2117535D01*
X953842Y2118004D01*
X964003Y2117004D01*
Y1941951D01*
X953843Y1940950D01*
X952652Y1946937D01*
X947339Y1954888D01*
X939389Y1960200D01*
X930011Y1962065D01*
X846761D01*
X837383Y1960200D01*
X829433Y1954888D01*
X824121Y1946937D01*
X822255Y1937559D01*
Y1917414D01*
X484184D01*
X483494Y1917700D01*
X466507D01*
X450813Y1911199D01*
X438801Y1899187D01*
X432300Y1883494D01*
Y1866507D01*
X438801Y1850813D01*
X450813Y1838801D01*
X466507Y1832300D01*
X483494D01*
X491267Y1835520D01*
X822255D01*
Y1818309D01*
X824121Y1808931D01*
X829433Y1800981D01*
X837383Y1795669D01*
X846761Y1793803D01*
X930011D01*
X939389Y1795669D01*
X947339Y1800981D01*
X952652Y1808931D01*
X953843Y1814919D01*
X964003Y1813918D01*
Y1638864D01*
X953843Y1637863D01*
X953749Y1638333D01*
X948437Y1646284D01*
X940487Y1651596D01*
X931109Y1653461D01*
X847859D01*
X838481Y1651596D01*
X830530Y1646284D01*
X825218Y1638333D01*
X823353Y1628955D01*
Y1602916D01*
X771214D01*
X765570Y1611364D01*
X767700Y1616507D01*
Y1633494D01*
X761199Y1649187D01*
X749187Y1661199D01*
X733494Y1667700D01*
X716507D01*
X700813Y1661199D01*
X688801Y1649187D01*
X682300Y1633494D01*
Y1616507D01*
X684430Y1611364D01*
X678786Y1602916D01*
X632470D01*
X624187Y1611199D01*
X608494Y1617700D01*
X591507D01*
X575813Y1611199D01*
X563801Y1599187D01*
X557300Y1583493D01*
Y1566506D01*
X563801Y1550812D01*
X575813Y1538801D01*
X591507Y1532300D01*
X608494D01*
X624187Y1538801D01*
X626801Y1541414D01*
X823353D01*
Y1509705D01*
X825218Y1500327D01*
X830530Y1492377D01*
X838481Y1487065D01*
X847859Y1485199D01*
X931109D01*
X940487Y1487065D01*
X948437Y1492377D01*
X953749Y1500327D01*
X953843Y1500798D01*
X964003Y1499797D01*
X964003Y1025000D01*
X967224Y1017224D01*
X1067224Y917224D01*
X1075000Y914003D01*
X1522500D01*
X1530276Y917224D01*
X1657776Y1044724D01*
X1660997Y1052500D01*
Y1176854D01*
X1661887Y1179003D01*
X2365000D01*
X2372776Y1182224D01*
X3432776Y2242224D01*
X3435997Y2250000D01*
Y2389248D01*
X3446157Y2393456D01*
X3450813Y2388801D01*
X3466506Y2382300D01*
X3477379D01*
X3481588Y2372140D01*
X3467224Y2357776D01*
X3464003Y2349999D01*
Y2250000D01*
X3467224Y2242224D01*
X3542223Y2167224D01*
X3550000Y2164003D01*
X4750000D01*
X4757776Y2167224D01*
X4982776Y2392224D01*
X4985997Y2400000D01*
Y2825000D01*
X4982776Y2832776D01*
X4807776Y3007776D01*
X4800000Y3010997D01*
X4000000D01*
X3992224Y3007776D01*
X3892224Y2907776D01*
X3889003Y2900000D01*
Y2485664D01*
X3886320Y2483771D01*
X3876160Y2489037D01*
Y2615760D01*
X3673840D01*
Y2565947D01*
X3487726D01*
X3483493Y2567700D01*
X3466506D01*
X3450813Y2561199D01*
X3446157Y2556544D01*
X3435997Y2560752D01*
Y2575000D01*
X3432776Y2582776D01*
X3382776Y2632776D01*
X3375000Y2635997D01*
X3082225D01*
X3078337Y2645384D01*
X3116453Y2683500D01*
X3116481Y2683519D01*
X3181360Y2748398D01*
X3186413Y2755959D01*
X3188187Y2764879D01*
Y2777940D01*
X3239960D01*
Y2908260D01*
X3119640D01*
Y2777940D01*
X3130610D01*
X3134818Y2767780D01*
X3083538Y2716500D01*
X3083510Y2716481D01*
X3040863Y2673834D01*
X2933878D01*
X2930620Y2673186D01*
X2903164D01*
X2897909Y2683347D01*
X2900163Y2686529D01*
X2947526D01*
X2955302Y2689750D01*
X3057776Y2792224D01*
X3060997Y2800000D01*
Y2890000D01*
X3057776Y2897776D01*
X3056460Y2899093D01*
Y2903660D01*
X3051893D01*
X3047776Y2907776D01*
X3040000Y2910997D01*
X2950000D01*
X2942224Y2907776D01*
X2939003Y2900000D01*
Y2794555D01*
X2910160Y2765713D01*
X2900000Y2769921D01*
Y3400000D01*
X2875000Y3425000D01*
X2725000D01*
X2700000Y3400000D01*
Y3075000D01*
X2697995Y3070160D01*
X2680653D01*
Y3295000D01*
X2678700Y3304817D01*
X2673139Y3313139D01*
X2518139Y3468139D01*
X2509817Y3473700D01*
X2500000Y3475653D01*
X2130360D01*
Y3490160D01*
X2060997D01*
Y3500000D01*
X2057776Y3507776D01*
X2032776Y3532776D01*
X2025000Y3535997D01*
D02*
G37*
G36*
X5833900Y2395765D02*
X5713900D01*
X5695584Y2393354D01*
X5678517Y2386285D01*
X5670327Y2380000D01*
X5663900D01*
Y2375068D01*
X5663861Y2375039D01*
X5652616Y2360383D01*
X5645546Y2343316D01*
X5643135Y2325000D01*
X5645546Y2306685D01*
X5652616Y2289617D01*
X5663861Y2274962D01*
X5663900Y2274932D01*
Y2270000D01*
X5670327D01*
X5678517Y2263716D01*
X5695584Y2256646D01*
X5713900Y2254235D01*
X5833900D01*
X5852216Y2256646D01*
X5869283Y2263716D01*
X5877473Y2270000D01*
X5883900D01*
Y2274932D01*
X5883939Y2274962D01*
X5895185Y2289617D01*
X5902254Y2306685D01*
X5904665Y2325000D01*
X5902254Y2343316D01*
X5895185Y2360383D01*
X5883939Y2375039D01*
X5883900Y2375068D01*
Y2380000D01*
X5877473D01*
X5869283Y2386285D01*
X5852216Y2393354D01*
X5833900Y2395765D01*
D02*
G37*
G36*
X3383494Y1867700D02*
X3366507D01*
X3350813Y1861199D01*
X3338801Y1849187D01*
X3332300Y1833493D01*
Y1816506D01*
X3338801Y1800813D01*
X3350813Y1788801D01*
X3366507Y1782300D01*
X3383494D01*
X3399188Y1788801D01*
X3411199Y1800813D01*
X3417700Y1816506D01*
Y1833493D01*
X3411199Y1849187D01*
X3399188Y1861199D01*
X3383494Y1867700D01*
D02*
G37*
G36*
X3458493Y1717700D02*
X3441506D01*
X3425813Y1711199D01*
X3413801Y1699187D01*
X3407300Y1683493D01*
Y1666506D01*
X3413801Y1650813D01*
X3425813Y1638801D01*
X3441506Y1632300D01*
X3458493D01*
X3474187Y1638801D01*
X3486199Y1650813D01*
X3492700Y1666506D01*
Y1683493D01*
X3486199Y1699187D01*
X3474187Y1711199D01*
X3458493Y1717700D01*
D02*
G37*
G36*
X383494Y1392700D02*
X366507D01*
X350813Y1386199D01*
X338801Y1374187D01*
X332300Y1358494D01*
Y1341507D01*
X338801Y1325813D01*
X350813Y1313801D01*
X366507Y1307300D01*
X383494D01*
X399187Y1313801D01*
X411199Y1325813D01*
X417700Y1341507D01*
Y1358494D01*
X411199Y1374187D01*
X399187Y1386199D01*
X383494Y1392700D01*
D02*
G37*
G36*
X921625Y1334131D02*
X838375D01*
X828997Y1332266D01*
X821047Y1326953D01*
X815734Y1319003D01*
X813869Y1309625D01*
Y1290947D01*
X612726D01*
X608494Y1292700D01*
X591507D01*
X575813Y1286199D01*
X563801Y1274187D01*
X557300Y1258494D01*
Y1241507D01*
X563801Y1225813D01*
X575813Y1213801D01*
X591507Y1207300D01*
X608494D01*
X612726Y1209053D01*
X813869D01*
Y1190375D01*
X815734Y1180997D01*
X821047Y1173047D01*
X828997Y1167735D01*
X838375Y1165869D01*
X921625D01*
X931003Y1167735D01*
X938953Y1173047D01*
X944266Y1180997D01*
X946131Y1190375D01*
Y1309625D01*
X944266Y1319003D01*
X938953Y1326953D01*
X931003Y1332266D01*
X921625Y1334131D01*
D02*
G37*
G36*
X3008494Y1267700D02*
X2991507D01*
X2975813Y1261199D01*
X2963801Y1249187D01*
X2957300Y1233494D01*
Y1216507D01*
X2963801Y1200813D01*
X2975813Y1188801D01*
X2991507Y1182300D01*
X3008494D01*
X3024188Y1188801D01*
X3036199Y1200813D01*
X3042700Y1216507D01*
Y1233494D01*
X3036199Y1249187D01*
X3024188Y1261199D01*
X3008494Y1267700D01*
D02*
G37*
G36*
X2883494D02*
X2866507D01*
X2850813Y1261199D01*
X2838801Y1249187D01*
X2832300Y1233494D01*
Y1216507D01*
X2838801Y1200813D01*
X2850813Y1188801D01*
X2866507Y1182300D01*
X2883494D01*
X2899187Y1188801D01*
X2911199Y1200813D01*
X2917700Y1216507D01*
Y1233494D01*
X2911199Y1249187D01*
X2899187Y1261199D01*
X2883494Y1267700D01*
D02*
G37*
G36*
X2758494D02*
X2741507D01*
X2725813Y1261199D01*
X2713801Y1249187D01*
X2707300Y1233494D01*
Y1216507D01*
X2713801Y1200813D01*
X2725813Y1188801D01*
X2741507Y1182300D01*
X2758494D01*
X2774187Y1188801D01*
X2786199Y1200813D01*
X2792700Y1216507D01*
Y1233494D01*
X2786199Y1249187D01*
X2774187Y1261199D01*
X2758494Y1267700D01*
D02*
G37*
G36*
X2633494D02*
X2616507D01*
X2600813Y1261199D01*
X2588801Y1249187D01*
X2582300Y1233494D01*
Y1216507D01*
X2588801Y1200813D01*
X2600813Y1188801D01*
X2616507Y1182300D01*
X2633494D01*
X2649187Y1188801D01*
X2661199Y1200813D01*
X2667700Y1216507D01*
Y1233494D01*
X2661199Y1249187D01*
X2649187Y1261199D01*
X2633494Y1267700D01*
D02*
G37*
G36*
X733494Y1167700D02*
X716507D01*
X700813Y1161199D01*
X688801Y1149187D01*
X682300Y1133494D01*
Y1116507D01*
X688801Y1100813D01*
X700813Y1088801D01*
X716507Y1082300D01*
X733494D01*
X737726Y1084053D01*
X773000D01*
X788670Y1087170D01*
X801954Y1096046D01*
X810830Y1109330D01*
X813947Y1125000D01*
X810830Y1140670D01*
X801954Y1153954D01*
X788670Y1162830D01*
X773000Y1165947D01*
X737726D01*
X733494Y1167700D01*
D02*
G37*
G36*
X3008494Y1142700D02*
X2991507D01*
X2975813Y1136199D01*
X2963801Y1124187D01*
X2957300Y1108494D01*
Y1091507D01*
X2963801Y1075813D01*
X2975813Y1063801D01*
X2991507Y1057300D01*
X3008494D01*
X3024188Y1063801D01*
X3036199Y1075813D01*
X3042700Y1091507D01*
Y1108494D01*
X3036199Y1124187D01*
X3024188Y1136199D01*
X3008494Y1142700D01*
D02*
G37*
G36*
X2883494D02*
X2866507D01*
X2850813Y1136199D01*
X2838801Y1124187D01*
X2832300Y1108494D01*
Y1091507D01*
X2838801Y1075813D01*
X2850813Y1063801D01*
X2866507Y1057300D01*
X2883494D01*
X2899187Y1063801D01*
X2911199Y1075813D01*
X2917700Y1091507D01*
Y1108494D01*
X2911199Y1124187D01*
X2899187Y1136199D01*
X2883494Y1142700D01*
D02*
G37*
G36*
X2758494D02*
X2741507D01*
X2725813Y1136199D01*
X2713801Y1124187D01*
X2707300Y1108494D01*
Y1091507D01*
X2713801Y1075813D01*
X2725813Y1063801D01*
X2741507Y1057300D01*
X2758494D01*
X2774187Y1063801D01*
X2786199Y1075813D01*
X2792700Y1091507D01*
Y1108494D01*
X2786199Y1124187D01*
X2774187Y1136199D01*
X2758494Y1142700D01*
D02*
G37*
G36*
X2633494D02*
X2616507D01*
X2600813Y1136199D01*
X2588801Y1124187D01*
X2582300Y1108494D01*
Y1091507D01*
X2588801Y1075813D01*
X2600813Y1063801D01*
X2616507Y1057300D01*
X2633494D01*
X2649187Y1063801D01*
X2661199Y1075813D01*
X2667700Y1091507D01*
Y1108494D01*
X2661199Y1124187D01*
X2649187Y1136199D01*
X2633494Y1142700D01*
D02*
G37*
G36*
X2378902Y973500D02*
X2108582D01*
Y703180D01*
X2378902D01*
Y973500D01*
D02*
G37*
G36*
X1761536D02*
X1725948D01*
X1691572Y964289D01*
X1660752Y946495D01*
X1635587Y921330D01*
X1617793Y890510D01*
X1608582Y856134D01*
Y820546D01*
X1617793Y786170D01*
X1635587Y755350D01*
X1660752Y730185D01*
X1691572Y712391D01*
X1725948Y703180D01*
X1761536D01*
X1795912Y712391D01*
X1826732Y730185D01*
X1851897Y755350D01*
X1869691Y786170D01*
X1878902Y820546D01*
Y856134D01*
X1869691Y890510D01*
X1851897Y921330D01*
X1826732Y946495D01*
X1795912Y964289D01*
X1761536Y973500D01*
D02*
G37*
G36*
X4559301Y955960D02*
X4520700D01*
X4482841Y948430D01*
X4447178Y933658D01*
X4415083Y912212D01*
X4387788Y884917D01*
X4366343Y852822D01*
X4351571Y817160D01*
X4344040Y779301D01*
Y740700D01*
X4351571Y702841D01*
X4366343Y667178D01*
X4387788Y635083D01*
X4415083Y607788D01*
X4447178Y586343D01*
X4482841Y571571D01*
X4520700Y564040D01*
X4559301D01*
X4597159Y571571D01*
X4632822Y586343D01*
X4664917Y607788D01*
X4692212Y635083D01*
X4713658Y667178D01*
X4728429Y702841D01*
X4735960Y740700D01*
Y779301D01*
X4728429Y817160D01*
X4713658Y852822D01*
X4692212Y884917D01*
X4664917Y912212D01*
X4632822Y933658D01*
X4597159Y948430D01*
X4559301Y955960D01*
D02*
G37*
G36*
X4015960D02*
X3624040D01*
Y564040D01*
X4015960D01*
Y955960D01*
D02*
G37*
G36*
X5517236Y675000D02*
X5482764D01*
X5448954Y668275D01*
X5417106Y655083D01*
X5388444Y635931D01*
X5364069Y611556D01*
X5344917Y582894D01*
X5331725Y551046D01*
X5325000Y517236D01*
Y482764D01*
X5331725Y448954D01*
X5344917Y417106D01*
X5364069Y388444D01*
X5388444Y364069D01*
X5417106Y344917D01*
X5448954Y331725D01*
X5482764Y325000D01*
X5517236D01*
X5551046Y331725D01*
X5582894Y344917D01*
X5611556Y364069D01*
X5635931Y388444D01*
X5655083Y417106D01*
X5668275Y448954D01*
X5675000Y482764D01*
Y517236D01*
X5668275Y551046D01*
X5655083Y582894D01*
X5635931Y611556D01*
X5611556Y635931D01*
X5582894Y655083D01*
X5551046Y668275D01*
X5517236Y675000D01*
D02*
G37*
G36*
X517236D02*
X482764D01*
X448954Y668275D01*
X417106Y655083D01*
X388444Y635931D01*
X364069Y611556D01*
X344917Y582894D01*
X331725Y551046D01*
X325000Y517236D01*
Y482764D01*
X331725Y448954D01*
X344917Y417106D01*
X364069Y388444D01*
X388444Y364069D01*
X417106Y344917D01*
X448954Y331725D01*
X482764Y325000D01*
X517236D01*
X551046Y331725D01*
X582894Y344917D01*
X611556Y364069D01*
X635931Y388444D01*
X655083Y417106D01*
X668275Y448954D01*
X675000Y482764D01*
Y517236D01*
X668275Y551046D01*
X655083Y582894D01*
X635931Y611556D01*
X611556Y635931D01*
X582894Y655083D01*
X551046Y668275D01*
X517236Y675000D01*
D02*
G37*
G36*
X2554953Y423500D02*
X2532530D01*
X2510871Y417696D01*
X2491452Y406485D01*
X2475597Y390629D01*
X2464385Y371210D01*
X2458582Y349551D01*
Y327128D01*
X2464385Y305470D01*
X2475597Y286050D01*
X2491452Y270195D01*
X2510871Y258984D01*
X2532530Y253180D01*
X2554953D01*
X2576612Y258984D01*
X2596031Y270195D01*
X2611887Y286050D01*
X2623098Y305470D01*
X2628902Y327128D01*
Y349551D01*
X2623098Y371210D01*
X2611887Y390629D01*
X2596031Y406485D01*
X2576612Y417696D01*
X2554953Y423500D01*
D02*
G37*
G36*
X1454953D02*
X1432530D01*
X1410871Y417696D01*
X1391452Y406485D01*
X1375597Y390629D01*
X1364386Y371210D01*
X1358582Y349551D01*
Y327128D01*
X1364386Y305470D01*
X1375597Y286050D01*
X1391452Y270195D01*
X1410871Y258984D01*
X1432530Y253180D01*
X1454953D01*
X1476612Y258984D01*
X1496031Y270195D01*
X1511887Y286050D01*
X1523098Y305470D01*
X1528902Y327128D01*
Y349551D01*
X1523098Y371210D01*
X1511887Y390629D01*
X1496031Y406485D01*
X1476612Y417696D01*
X1454953Y423500D01*
D02*
G37*
%LPD*%
G36*
X4425000Y5100000D02*
Y5000000D01*
X4650000Y4775000D01*
X5225000D01*
X5300000Y4699998D01*
X5300000Y4649999D01*
X5225004Y4575003D01*
X4939967Y4575000D01*
X4933081Y4582459D01*
X4932867Y4582558D01*
X4932777Y4582776D01*
X4929079Y4584308D01*
X4925440Y4585989D01*
X4925218Y4585907D01*
X4925001Y4585997D01*
X4755000D01*
X4747224Y4582776D01*
X4727224Y4562776D01*
X4724003Y4555000D01*
Y4440000D01*
X4724002Y4364555D01*
X4695445Y4335997D01*
X4600000Y4335997D01*
X4592224Y4332776D01*
X4589003Y4324999D01*
X4589003Y4114003D01*
X4575000Y4100000D01*
X4153827D01*
X4149939Y4109387D01*
X4432776Y4392223D01*
X4435997Y4400000D01*
X4435997Y4650000D01*
X4432776Y4657776D01*
X4307776Y4782776D01*
X4300000Y4785997D01*
X4289003D01*
X4276160Y4798840D01*
Y4953628D01*
X4275000D01*
X4253628Y4975000D01*
X3925000D01*
X3825000Y5075000D01*
Y5225000D01*
X3850000Y5250000D01*
X4275000D01*
X4425000Y5100000D01*
D02*
G37*
G36*
X3025000Y5125000D02*
X3075000Y5075000D01*
Y4605000D01*
X2985000Y4515000D01*
X2925000D01*
X2865000Y4455000D01*
X2865000Y4400000D01*
Y4285000D01*
X2845000Y4265000D01*
X2645000D01*
Y4485000D01*
X2675000Y4515000D01*
Y4935000D01*
X2865000Y5125000D01*
X3025000D01*
Y5125000D01*
D02*
G37*
G36*
X3285000Y4705000D02*
Y4450000D01*
X3160997D01*
Y4215997D01*
X3150000Y4205000D01*
X2999999Y4025000D01*
X2612499D01*
X2312500Y4025000D01*
X2225000Y4112500D01*
Y4200000D01*
X2362499Y4337500D01*
X2597161D01*
X2634003Y4300658D01*
Y4263816D01*
X2634841Y4262978D01*
X2637224Y4257224D01*
X2645000Y4254003D01*
X2849556D01*
X2871230Y4275677D01*
X2872777Y4277224D01*
X2875998Y4285000D01*
Y4400000D01*
Y4450445D01*
X2929555Y4504003D01*
X2985000D01*
X2992777Y4507224D01*
X3082776Y4597223D01*
X3085997Y4605000D01*
Y4715810D01*
X3095187Y4725000D01*
X3265000D01*
X3285000Y4705000D01*
D02*
G37*
G36*
X4425000Y4650000D02*
X4425000Y4400000D01*
X4115000Y4089999D01*
X3305000Y4090000D01*
X3171994Y4223006D01*
Y4439003D01*
X3285000D01*
X3292776Y4442224D01*
X3295997Y4450000D01*
Y4705000D01*
X3292776Y4712776D01*
X3355000Y4775000D01*
X4300000D01*
X4425000Y4650000D01*
D02*
G37*
G36*
X4955000Y4542500D02*
Y4355000D01*
X4925000Y4325000D01*
Y3905000D01*
X4735000Y3715000D01*
X4599999D01*
X4600000Y4324999D01*
X4700000Y4325000D01*
X4735000Y4360000D01*
X4735000Y4440000D01*
Y4555000D01*
X4755000Y4575000D01*
X4925001D01*
X4955000Y4542500D01*
D02*
G37*
G36*
X2525000Y4675000D02*
X2525000Y4499999D01*
X2490000Y4464999D01*
X2142500D01*
X1760000Y4465000D01*
X1710000Y4515000D01*
X1650552D01*
X1647776Y4517776D01*
X1640000Y4520997D01*
X1510000D01*
X1502223Y4517776D01*
X1482223Y4497776D01*
X1479002Y4490000D01*
Y4154002D01*
X1450000Y4125000D01*
X1225001D01*
X1175000Y4175000D01*
X1175000Y4225000D01*
X1205000Y4255000D01*
X1220000D01*
X1250000Y4285000D01*
Y4575000D01*
X1410000Y4735000D01*
X2465000D01*
X2525000Y4675000D01*
D02*
G37*
G36*
X1385061Y4725613D02*
X1242224Y4582776D01*
X1239003Y4575000D01*
Y4289555D01*
X1215445Y4265997D01*
X1205000D01*
X1197224Y4262776D01*
X1167224Y4232776D01*
X1164003Y4225000D01*
X1164003Y4175000D01*
X1167223Y4167224D01*
X1167224Y4167224D01*
X1025000Y4025000D01*
X892500D01*
X760000Y4157500D01*
Y4585000D01*
X910000Y4735000D01*
X1381173D01*
X1385061Y4725613D01*
D02*
G37*
G36*
X1710000Y4440000D02*
Y4290000D01*
X1680000Y4260000D01*
Y3679999D01*
X1649998Y3650000D01*
X1585000D01*
X1490000Y3745000D01*
Y4490000D01*
X1510000Y4510000D01*
X1640000D01*
X1710000Y4440000D01*
D02*
G37*
G36*
X2575000Y3300000D02*
X2625000Y3250000D01*
Y3099999D01*
X2595161Y3070160D01*
X2589840D01*
Y3064839D01*
X2575000Y3049999D01*
Y2944000D01*
X2538638Y2907084D01*
X2531660Y2900660D01*
Y2900660D01*
X2531659Y2900660D01*
X2449340D01*
X2400653Y2949347D01*
Y3200000D01*
X2400545Y3200545D01*
X2425000Y3225000D01*
Y3262500D01*
X2462500Y3300000D01*
X2500000D01*
X2575000Y3300000D01*
D02*
G37*
G36*
X3050000Y2890000D02*
Y2800000D01*
X2947526Y2697526D01*
X2850000D01*
Y2740000D01*
X2900000D01*
X2950000Y2790000D01*
Y2820000D01*
Y2900000D01*
X3040000D01*
X3050000Y2890000D01*
D02*
G37*
G36*
X2270000Y2730000D02*
X2330000Y2670000D01*
X2640000D01*
Y2630000D01*
X2210000D01*
X2170000Y2670000D01*
Y2900000D01*
X2270000D01*
Y2730000D01*
D02*
G37*
G36*
X4975000Y2825000D02*
Y2400000D01*
X4750000Y2175000D01*
X3550000D01*
X3475000Y2250000D01*
Y2349999D01*
X3524727Y2399727D01*
X3534840Y2399840D01*
X3534840Y2399839D01*
X3534841Y2399840D01*
X3615160D01*
Y2400000D01*
X3650000Y2400000D01*
X3825000D01*
X3900000Y2475000D01*
Y2900000D01*
X4000000Y3000000D01*
X4800000D01*
X4975000Y2825000D01*
D02*
G37*
G36*
X3425000Y2575000D02*
X3425000Y2250000D01*
X2365000Y1190000D01*
X1660000D01*
X1580000Y1270000D01*
Y1660000D01*
X2000000Y2080000D01*
X2290000D01*
X2510000Y2300000D01*
X2884840D01*
Y2299840D01*
X2965160D01*
Y2300000D01*
X2975000D01*
X2990160Y2315160D01*
Y2430080D01*
X2990159Y2484841D01*
X2975000Y2500000D01*
X2900000Y2500000D01*
X2787091D01*
X2775000Y2512091D01*
Y2524183D01*
X2799183Y2548367D01*
X2850000D01*
Y2600000D01*
Y2612500D01*
X2862500Y2625000D01*
X3375000D01*
X3425000Y2575000D01*
D02*
G37*
G36*
X2607001Y2571593D02*
Y2547888D01*
X2630706Y2524183D01*
X2764003D01*
Y2500000D01*
X2767224Y2496779D01*
Y2492224D01*
X2771779D01*
X2775000Y2489003D01*
X2833878D01*
X2864003Y2458878D01*
Y2384937D01*
X2790063Y2310997D01*
X2510000D01*
X2502224Y2307776D01*
X2285445Y2090997D01*
X2180898D01*
X2177007Y2100383D01*
X2275000Y2198474D01*
Y2525000D01*
X2369003Y2619003D01*
X2559591D01*
X2607001Y2571593D01*
D02*
G37*
G36*
X2050000Y3500000D02*
Y3400000D01*
X2025000Y3375000D01*
X1925000D01*
X1900000Y3350000D01*
Y2725000D01*
X2025000Y2600000D01*
X2128140D01*
X2134929Y2589840D01*
X2132300Y2583493D01*
Y2566506D01*
X2138801Y2550813D01*
X2150813Y2538801D01*
X2166506Y2532300D01*
X2183493D01*
X2199187Y2538801D01*
X2211199Y2550813D01*
X2217700Y2566506D01*
Y2583493D01*
X2217641Y2583636D01*
X2224097Y2594089D01*
X2230364Y2594636D01*
X2275000Y2550000D01*
Y2540552D01*
X2267224Y2532776D01*
X2264003Y2525000D01*
Y2212001D01*
X2142999Y2090997D01*
X2000000D01*
X1992224Y2087776D01*
X1572224Y1667776D01*
X1569003Y1660000D01*
Y1270000D01*
X1572224Y1262224D01*
X1652224Y1182224D01*
X1650000Y1180000D01*
Y1052500D01*
X1522500Y925000D01*
X1075000D01*
X975000Y1025000D01*
X975000Y2500000D01*
X1025000Y2550000D01*
X1025000Y3450000D01*
X1099999Y3525000D01*
X2025000Y3525000D01*
X2050000Y3500000D01*
D02*
G37*
%LPC*%
G36*
X4358493Y2867700D02*
X4341506D01*
X4325813Y2861199D01*
X4313801Y2849187D01*
X4307300Y2833493D01*
Y2816506D01*
X4313801Y2800813D01*
X4325813Y2788801D01*
X4341506Y2782300D01*
X4358493D01*
X4374187Y2788801D01*
X4386199Y2800813D01*
X4392700Y2816506D01*
Y2833493D01*
X4386199Y2849187D01*
X4374187Y2861199D01*
X4358493Y2867700D01*
D02*
G37*
G36*
X4178494Y2862700D02*
X4161507D01*
X4145813Y2856199D01*
X4133801Y2844187D01*
X4127300Y2828493D01*
Y2811506D01*
X4133801Y2795813D01*
X4145813Y2783801D01*
X4161507Y2777300D01*
X4178494D01*
X4194187Y2783801D01*
X4206199Y2795813D01*
X4212700Y2811506D01*
Y2828493D01*
X4206199Y2844187D01*
X4194187Y2856199D01*
X4178494Y2862700D01*
D02*
G37*
G36*
X2033494Y1892700D02*
X2016507D01*
X2000813Y1886199D01*
X1988801Y1874188D01*
X1982300Y1858494D01*
Y1841507D01*
X1988801Y1825813D01*
X2000813Y1813801D01*
X2016507Y1807300D01*
X2033494D01*
X2049187Y1813801D01*
X2061199Y1825813D01*
X2067700Y1841507D01*
Y1858494D01*
X2061199Y1874188D01*
X2049187Y1886199D01*
X2033494Y1892700D01*
D02*
G37*
%LPD*%
D10*
X2999800Y2850000D02*
D03*
Y3006000D02*
D03*
X2800000Y3503000D02*
D03*
X2214400Y3006127D02*
D03*
X2475000Y3003000D02*
D03*
Y2847000D02*
D03*
X2800000Y3347000D02*
D03*
X2214400Y2850127D02*
D03*
D16*
X2655000Y3010000D02*
D03*
X2825000D02*
D03*
D21*
X3716400Y2800000D02*
D03*
X3983600D02*
D03*
D25*
X2006800Y3450000D02*
D03*
X2093200D02*
D03*
D26*
X1618720Y4061460D02*
D03*
X1774720D02*
D03*
X1972000Y3270720D02*
D03*
X4522000Y4025000D02*
D03*
X2572000Y4850000D02*
D03*
X1405360Y4213860D02*
D03*
X2992000Y4650000D02*
D03*
X2728000Y4850000D02*
D03*
X4678000Y4025000D02*
D03*
X4656000Y4250000D02*
D03*
X4500000D02*
D03*
X2669248Y2854634D02*
D03*
X2825248D02*
D03*
X2128000Y3270720D02*
D03*
X1561360Y4213860D02*
D03*
X3148000Y4650000D02*
D03*
D30*
X2375000Y2864574D02*
Y3200000D01*
X3477500Y2427500D02*
X3572500D01*
X2655000Y3010000D02*
X2669248Y2995752D01*
Y2854634D02*
Y2995752D01*
X2392574Y2847000D02*
X2475000D01*
X2375000Y2864574D02*
X2392574Y2847000D01*
X2304280Y3270720D02*
X2375000Y3200000D01*
X2128000Y3270720D02*
X2304280D01*
X2093200Y3450000D02*
X2500000D01*
X2655000Y3295000D01*
Y3010000D02*
Y3295000D01*
D31*
X1915160Y3845560D02*
X2009140Y3939540D01*
X1783080Y3845560D02*
X1915160D01*
X880000Y1232000D02*
Y1250000D01*
X725000Y1125000D02*
X773000D01*
X600000Y1250000D02*
X880000D01*
X1975000Y3150000D02*
Y3267719D01*
X476467Y1876467D02*
X886919D01*
X453827Y2196173D02*
X879849D01*
X452500Y2472500D02*
X887500D01*
X3475000Y2525000D02*
X3766400D01*
X3125000Y3925000D02*
X3435800D01*
X4300000Y4025000D02*
X4522000D01*
X4300000Y3825000D02*
X4500000D01*
X3925000Y4875000D02*
X4171468D01*
X2375000Y4850000D02*
X2572000D01*
X3165000Y5000000D02*
X3375000D01*
X1925000Y4863031D02*
Y5125000D01*
X925000Y4843699D02*
Y5075000D01*
X1774720Y4061460D02*
X1996720D01*
X2458600Y3925000D02*
X2650000D01*
X2800496Y3502505D02*
X2951873D01*
X3187873Y3021173D02*
X3396173D01*
X3500000Y2800000D02*
X3716400D01*
D32*
X2999800Y3006000D02*
Y3124800D01*
X3071173Y3146173D02*
X3075000Y3150000D01*
X2999800Y3124800D02*
X3021173Y3146173D01*
X3071173D01*
X600000Y1575000D02*
X602835Y1572165D01*
X886649D01*
X889484Y1569330D01*
X886919Y1876467D02*
X888386Y1877934D01*
X475000Y1875000D02*
X476467Y1876467D01*
X450000Y2200000D02*
X453827Y2196173D01*
X879849D02*
X889484Y2186538D01*
X887500Y2472500D02*
X890000Y2470000D01*
X450000Y2475000D02*
X452500Y2472500D01*
X3435800Y3925000D02*
X3450000Y3910801D01*
X4171468Y4875000D02*
X4175000Y4871468D01*
X1925000Y4863031D02*
X1934999Y4853031D01*
X920000Y4838699D02*
X925000Y4843699D01*
X2450000Y3916400D02*
X2458600Y3925000D01*
X3179800Y3013100D02*
X3187873Y3021173D01*
D35*
X2774622Y2628441D02*
X2818878Y2672697D01*
Y2697526D01*
X2728615Y2628441D02*
X2774622D01*
X2725000Y2624827D02*
X2728615Y2628441D01*
X2825000Y2854882D02*
Y3010000D01*
X2809913Y2784913D02*
Y2839300D01*
X2769078Y2744078D02*
X2809913Y2784913D01*
Y2839300D02*
X2825248Y2854634D01*
X2769078Y2697726D02*
Y2744078D01*
X2800000Y3035000D02*
X2825000Y3010000D01*
X2800000Y3035000D02*
Y3347000D01*
X2220527Y3000000D02*
X2300000D01*
X2214400Y3006127D02*
X2220527Y3000000D01*
X1972000Y3270720D02*
X1975000Y3267719D01*
X3766400Y2525000D02*
X3775000Y2533600D01*
X3475000Y2425000D02*
X3477500Y2427500D01*
X3572500D02*
X3575000Y2430000D01*
X2725000Y2582404D02*
Y2624827D01*
Y2582404D02*
X2728878Y2578526D01*
X2933878Y2337300D02*
Y2470526D01*
X5125000Y4958600D02*
Y5250000D01*
X2475000Y2750001D02*
Y2847000D01*
Y2750001D02*
X2527474Y2697526D01*
X2718878D01*
X3099991Y2700000D02*
X3100000D01*
X2933878Y2650527D02*
X3050517D01*
X3099991Y2700000D01*
X3100000D02*
X3164879Y2764879D01*
Y2828179D01*
X3179800Y2843100D01*
X2870000Y2520327D02*
X2870200Y2520527D01*
X2878878D01*
X2768878Y2697526D02*
X2769078Y2697726D01*
D36*
X2242096Y5626831D02*
D03*
X1226096D02*
D03*
D37*
X1150000Y3400000D02*
D03*
D38*
X650000D02*
D03*
D39*
X1443742Y338340D02*
D03*
X2543742D02*
D03*
D40*
X2243742Y838340D02*
D03*
D41*
X1743742D02*
D03*
D42*
X5173900Y3360000D02*
D03*
X4540000Y760000D02*
D03*
D43*
X3820000D02*
D03*
D44*
X5773900Y2325000D02*
D03*
Y3675000D02*
D03*
D45*
X5173900Y2640000D02*
D03*
D46*
X3505000Y160000D02*
D03*
X4855000D02*
D03*
D47*
X4170000Y2820000D02*
D03*
X2009140Y3939540D02*
D03*
X2800000Y3607300D02*
D03*
X725000Y1125000D02*
D03*
X3075000Y3150000D02*
D03*
X2175000Y2575000D02*
D03*
X600000Y1250000D02*
D03*
X1975000Y3150000D02*
D03*
X2025000Y1850000D02*
D03*
X2300000Y3000000D02*
D03*
X600000Y1575000D02*
D03*
X725000Y1625000D02*
D03*
X475000Y1875000D02*
D03*
X450000Y2200000D02*
D03*
Y2475000D02*
D03*
X3475000Y2525000D02*
D03*
Y2425000D02*
D03*
X2725000Y2624827D02*
D03*
X3125000Y3925000D02*
D03*
X4300000Y4025000D02*
D03*
Y3825000D02*
D03*
X5125000Y5250000D02*
D03*
X3925000Y4875000D02*
D03*
X2375000Y4850000D02*
D03*
X3375000Y5000000D02*
D03*
X1925000Y5125000D02*
D03*
X925000Y5075000D02*
D03*
X1996720Y4061460D02*
D03*
X2650000Y3925000D02*
D03*
X2951873Y3502505D02*
D03*
X3396173Y3021173D02*
D03*
X3500000Y2800000D02*
D03*
X4175000Y3325000D02*
D03*
X3750000Y5900000D02*
D03*
X4000000Y5350000D02*
D03*
X2675000Y5675000D02*
D03*
X4275000D02*
D03*
X375000Y1350000D02*
D03*
X3875000Y3350000D02*
D03*
Y3450000D02*
D03*
Y3550000D02*
D03*
Y3650000D02*
D03*
X3975000D02*
D03*
Y3550000D02*
D03*
Y3450000D02*
D03*
Y3350000D02*
D03*
Y3750000D02*
D03*
X3875000D02*
D03*
X2575000Y3100000D02*
D03*
Y3200000D02*
D03*
X2450000Y3100000D02*
D03*
Y3200000D02*
D03*
X4625000Y2450000D02*
D03*
X4750000D02*
D03*
Y2825000D02*
D03*
Y2700000D02*
D03*
Y2575000D02*
D03*
X4625000Y2700000D02*
D03*
Y2825000D02*
D03*
Y2575000D02*
D03*
X2400000D02*
D03*
Y2475000D02*
D03*
X2525000Y2575000D02*
D03*
Y2475000D02*
D03*
X1175000Y3100000D02*
D03*
X1275000D02*
D03*
Y2700000D02*
D03*
Y2800000D02*
D03*
Y2900000D02*
D03*
Y3000000D02*
D03*
X1175000D02*
D03*
Y2900000D02*
D03*
Y2800000D02*
D03*
Y2700000D02*
D03*
X2475000Y4500000D02*
D03*
X2375000D02*
D03*
X2275000D02*
D03*
X2175000D02*
D03*
Y4600000D02*
D03*
X2275000D02*
D03*
X2375000D02*
D03*
X2475000D02*
D03*
X3500000Y4425000D02*
D03*
Y4550000D02*
D03*
X1075000D02*
D03*
Y4450000D02*
D03*
Y4350000D02*
D03*
Y4250000D02*
D03*
Y4150000D02*
D03*
X3875000Y4425000D02*
D03*
X3750000D02*
D03*
X3625000D02*
D03*
Y4550000D02*
D03*
X3750000D02*
D03*
X3875000D02*
D03*
X5075000Y4475000D02*
D03*
X400000Y2275000D02*
D03*
X3050000Y3300000D02*
D03*
X2750000Y1225000D02*
D03*
X4350000Y2825000D02*
D03*
X3450000Y1675000D02*
D03*
X3375000Y1825000D02*
D03*
X3000000Y1225000D02*
D03*
X2875000D02*
D03*
X2750000Y1100000D02*
D03*
X2875000D02*
D03*
X3000000D02*
D03*
X2625000D02*
D03*
Y1225000D02*
D03*
D48*
X2350000Y2250000D02*
D03*
Y2375000D02*
D03*
D49*
X4150000Y5175000D02*
D03*
X3050000Y4200000D02*
D03*
D51*
X4175000Y4604268D02*
D03*
Y4871468D02*
D03*
X1974999Y4585831D02*
D03*
Y4853031D02*
D03*
X5125000Y4691400D02*
D03*
Y4958600D02*
D03*
X920000Y4838699D02*
D03*
X2450000Y3916400D02*
D03*
X3450000Y3910801D02*
D03*
X3775000Y2533600D02*
D03*
X3450000Y4178001D02*
D03*
X920000Y4571499D02*
D03*
X3775000Y2266400D02*
D03*
X2450000Y4183600D02*
D03*
D52*
X2985000Y5000000D02*
D03*
X3165000D02*
D03*
X1783080Y3845560D02*
D03*
X1603080D02*
D03*
X1060000Y1250000D02*
D03*
X880000D02*
D03*
X890000Y2470000D02*
D03*
X889484Y2186538D02*
D03*
Y1569330D02*
D03*
X888386Y1877934D02*
D03*
X4500000Y3825000D02*
D03*
X4680000D02*
D03*
X1070000Y2470000D02*
D03*
X1069484Y2186538D02*
D03*
Y1569330D02*
D03*
X1068386Y1877934D02*
D03*
D53*
X1920000Y2385000D02*
D03*
Y1435000D02*
D03*
D54*
X2999999Y4359500D02*
D03*
X2770999D02*
D03*
X3228999D02*
D03*
X1649000Y4365000D02*
D03*
X1191000D02*
D03*
X1420000D02*
D03*
X4833000Y4475000D02*
D03*
X4604000D02*
D03*
X4375000D02*
D03*
D55*
X2999999Y3690500D02*
D03*
X1420000Y5034000D02*
D03*
X4604000Y5144000D02*
D03*
D56*
X2925000Y2330000D02*
D03*
Y2220000D02*
D03*
X3575000Y2430000D02*
D03*
Y2320000D02*
D03*
D57*
X2653878Y2650527D02*
D03*
X2933878D02*
D03*
Y2470526D02*
D03*
D58*
X2868878Y2697526D02*
D03*
X2768878D02*
D03*
X2718878D02*
D03*
X2818878D02*
D03*
D59*
X2878878Y2520527D02*
D03*
D60*
X2713878Y2458527D02*
D03*
D61*
X2728878Y2578526D02*
D03*
D62*
X3179800Y3013100D02*
D03*
Y2843100D02*
D03*
%TF.MD5,eeca961b345d93b03fd5f3ca5f20eca0*%
M02*
