%TF.GenerationSoftware,Altium Limited,Altium Designer,24.5.2 (23)*%
G04 Layer_Color=8421504*
%FSLAX45Y45*%
%MOMM*%
%TF.SameCoordinates,36DB1FCB-C3D3-4704-BDE4-177FFF87CD08*%
%TF.FilePolarity,Positive*%
%TF.FileFunction,Paste,Top*%
%TF.Part,Single*%
G01*
G75*
%TA.AperFunction,SMDPad,CuDef*%
%ADD10R,0.93000X0.87000*%
G04:AMPARAMS|DCode=11|XSize=2.18mm|YSize=3.12mm|CornerRadius=0.2725mm|HoleSize=0mm|Usage=FLASHONLY|Rotation=0.000|XOffset=0mm|YOffset=0mm|HoleType=Round|Shape=RoundedRectangle|*
%AMROUNDEDRECTD11*
21,1,2.18000,2.57500,0,0,0.0*
21,1,1.63500,3.12000,0,0,0.0*
1,1,0.54500,0.81750,-1.28750*
1,1,0.54500,-0.81750,-1.28750*
1,1,0.54500,-0.81750,1.28750*
1,1,0.54500,0.81750,1.28750*
%
%ADD11ROUNDEDRECTD11*%
%ADD12R,3.79000X0.99000*%
%ADD14R,1.70000X0.60000*%
%ADD15R,2.70000X1.00000*%
%ADD16R,1.10000X1.00000*%
%ADD17R,5.40000X2.90000*%
%ADD18R,0.40000X0.60000*%
G04:AMPARAMS|DCode=19|XSize=2.8194mm|YSize=1.016mm|CornerRadius=0.508mm|HoleSize=0mm|Usage=FLASHONLY|Rotation=270.000|XOffset=0mm|YOffset=0mm|HoleType=Round|Shape=RoundedRectangle|*
%AMROUNDEDRECTD19*
21,1,2.81940,0.00000,0,0,270.0*
21,1,1.80340,1.01600,0,0,270.0*
1,1,1.01600,0.00000,-0.90170*
1,1,1.01600,0.00000,0.90170*
1,1,1.01600,0.00000,0.90170*
1,1,1.01600,0.00000,-0.90170*
%
%ADD19ROUNDEDRECTD19*%
G04:AMPARAMS|DCode=20|XSize=0.6096mm|YSize=1.7018mm|CornerRadius=0.3048mm|HoleSize=0mm|Usage=FLASHONLY|Rotation=180.000|XOffset=0mm|YOffset=0mm|HoleType=Round|Shape=RoundedRectangle|*
%AMROUNDEDRECTD20*
21,1,0.60960,1.09220,0,0,180.0*
21,1,0.00000,1.70180,0,0,180.0*
1,1,0.60960,0.00000,0.54610*
1,1,0.60960,0.00000,0.54610*
1,1,0.60960,0.00000,-0.54610*
1,1,0.60960,0.00000,-0.54610*
%
%ADD20ROUNDEDRECTD20*%
%ADD21R,1.44000X1.82000*%
G04:AMPARAMS|DCode=22|XSize=2.18mm|YSize=3.12mm|CornerRadius=0.2725mm|HoleSize=0mm|Usage=FLASHONLY|Rotation=90.000|XOffset=0mm|YOffset=0mm|HoleType=Round|Shape=RoundedRectangle|*
%AMROUNDEDRECTD22*
21,1,2.18000,2.57500,0,0,90.0*
21,1,1.63500,3.12000,0,0,90.0*
1,1,0.54500,1.28750,0.81750*
1,1,0.54500,1.28750,-0.81750*
1,1,0.54500,-1.28750,-0.81750*
1,1,0.54500,-1.28750,0.81750*
%
%ADD22ROUNDEDRECTD22*%
G04:AMPARAMS|DCode=23|XSize=1.24mm|YSize=1.92mm|CornerRadius=0.155mm|HoleSize=0mm|Usage=FLASHONLY|Rotation=0.000|XOffset=0mm|YOffset=0mm|HoleType=Round|Shape=RoundedRectangle|*
%AMROUNDEDRECTD23*
21,1,1.24000,1.61000,0,0,0.0*
21,1,0.93000,1.92000,0,0,0.0*
1,1,0.31000,0.46500,-0.80500*
1,1,0.31000,-0.46500,-0.80500*
1,1,0.31000,-0.46500,0.80500*
1,1,0.31000,0.46500,0.80500*
%
%ADD23ROUNDEDRECTD23*%
%ADD24R,0.80000X0.63000*%
%ADD25R,0.54000X0.60000*%
%ADD26R,0.87000X0.93000*%
G04:AMPARAMS|DCode=27|XSize=1.97mm|YSize=0.6mm|CornerRadius=0.075mm|HoleSize=0mm|Usage=FLASHONLY|Rotation=0.000|XOffset=0mm|YOffset=0mm|HoleType=Round|Shape=RoundedRectangle|*
%AMROUNDEDRECTD27*
21,1,1.97000,0.45000,0,0,0.0*
21,1,1.82000,0.60000,0,0,0.0*
1,1,0.15000,0.91000,-0.22500*
1,1,0.15000,-0.91000,-0.22500*
1,1,0.15000,-0.91000,0.22500*
1,1,0.15000,0.91000,0.22500*
%
%ADD27ROUNDEDRECTD27*%
%ADD28R,0.70000X0.50000*%
%ADD29R,1.95580X3.14960*%
G36*
X3126500Y1697000D02*
X2981500D01*
Y1823000D01*
X3126500D01*
Y1697000D01*
D02*
G37*
G36*
X2872500D02*
X2727500D01*
Y1823000D01*
X2872500D01*
Y1697000D01*
D02*
G37*
G36*
X2618500D02*
X2473500D01*
Y1823000D01*
X2618500D01*
Y1697000D01*
D02*
G37*
G36*
X3126500Y1517000D02*
X2981500D01*
Y1643000D01*
X3126500D01*
Y1517000D01*
D02*
G37*
G36*
X2872500D02*
X2727500D01*
Y1643000D01*
X2872500D01*
Y1517000D01*
D02*
G37*
G36*
X2618500D02*
X2473500D01*
Y1643000D01*
X2618500D01*
Y1517000D01*
D02*
G37*
G36*
X3126500Y1337000D02*
X2981500D01*
Y1463000D01*
X3126500D01*
Y1337000D01*
D02*
G37*
G36*
X2872500D02*
X2727500D01*
Y1463000D01*
X2872500D01*
Y1337000D01*
D02*
G37*
G36*
X2618500D02*
X2473500D01*
Y1463000D01*
X2618500D01*
Y1337000D01*
D02*
G37*
G36*
X3126500Y2237000D02*
X2981500D01*
Y2363000D01*
X3126500D01*
Y2237000D01*
D02*
G37*
G36*
X2872500D02*
X2727500D01*
Y2363000D01*
X2872500D01*
Y2237000D01*
D02*
G37*
G36*
X2618500D02*
X2473500D01*
Y2363000D01*
X2618500D01*
Y2237000D01*
D02*
G37*
G36*
X3126500Y2057000D02*
X2981500D01*
Y2183000D01*
X3126500D01*
Y2057000D01*
D02*
G37*
G36*
X2872500D02*
X2727500D01*
Y2183000D01*
X2872500D01*
Y2057000D01*
D02*
G37*
G36*
X2618500D02*
X2473500D01*
Y2183000D01*
X2618500D01*
Y2057000D01*
D02*
G37*
G36*
X3126500Y1877000D02*
X2981500D01*
Y2003000D01*
X3126500D01*
Y1877000D01*
D02*
G37*
G36*
X2872500D02*
X2727500D01*
Y2003000D01*
X2872500D01*
Y1877000D01*
D02*
G37*
G36*
X2618500D02*
X2473500D01*
Y2003000D01*
X2618500D01*
Y1877000D01*
D02*
G37*
D10*
X4170000Y3128000D02*
D03*
Y2972000D02*
D03*
D11*
X1851500Y3650000D02*
D03*
X2548500D02*
D03*
D12*
X1712000Y1596000D02*
D03*
Y2104000D02*
D03*
Y1850000D02*
D03*
D14*
X719800Y1872701D02*
D03*
Y1747701D02*
D03*
D15*
X399800Y2057701D02*
D03*
Y1562701D02*
D03*
D16*
X4390000Y3600000D02*
D03*
X4560000D02*
D03*
X3415000Y2025000D02*
D03*
X2035000Y2575000D02*
D03*
X1865000D02*
D03*
X3585000Y2025000D02*
D03*
D17*
X3475000Y4790000D02*
D03*
Y3800000D02*
D03*
D18*
X845000Y1400000D02*
D03*
X955000D02*
D03*
D19*
X3908000Y5670000D02*
D03*
X2892500D02*
D03*
D20*
X3714960Y5355000D02*
D03*
X3587960D02*
D03*
X3087500D02*
D03*
X3212500D02*
D03*
X3463500D02*
D03*
X3337500D02*
D03*
D21*
X3341400Y3400000D02*
D03*
X3608600D02*
D03*
D22*
X4550000Y4697000D02*
D03*
Y4000000D02*
D03*
D23*
X4350000Y3000000D02*
D03*
X4648000D02*
D03*
D24*
X4380000Y3325000D02*
D03*
X4620000Y3420000D02*
D03*
Y3325000D02*
D03*
Y3230000D02*
D03*
X4380000Y3420000D02*
D03*
Y3230000D02*
D03*
D25*
X3531800Y1800000D02*
D03*
X3618200D02*
D03*
D26*
X3847000Y3100000D02*
D03*
X4003000D02*
D03*
D27*
X3879999Y2278009D02*
D03*
Y2151009D02*
D03*
Y2024009D02*
D03*
Y1897009D02*
D03*
X4374999D02*
D03*
Y2024009D02*
D03*
Y2151009D02*
D03*
Y2278009D02*
D03*
D28*
X3650000Y2275000D02*
D03*
X3450000D02*
D03*
D29*
X5370110Y1700000D02*
D03*
X4879890D02*
D03*
%TF.MD5,99349a8a306fd52acc7034e012d79b56*%
M02*
