%TF.GenerationSoftware,Altium Limited,Altium Designer,24.5.2 (23)*%
G04 Layer_Color=2752767*
%FSLAX45Y45*%
%MOMM*%
%TF.SameCoordinates,36DB1FCB-C3D3-4704-BDE4-177FFF87CD08*%
%TF.FilePolarity,Positive*%
%TF.FileFunction,Drawing*%
%TF.Part,Single*%
G01*
G75*
%TA.AperFunction,NonConductor*%
%ADD70C,0.12700*%
%ADD80C,0.10160*%
%ADD137C,0.16933*%
D70*
X449200Y5449200D02*
Y5550800D01*
X550800D01*
Y5449200D01*
X449200D01*
X469520Y5469520D02*
Y5530480D01*
X530480D01*
Y5469520D01*
X469520D01*
X5449200Y449200D02*
Y550800D01*
X5550800D01*
Y449200D01*
X5449200D01*
X5469520Y469520D02*
Y530480D01*
X5530480D01*
Y469520D01*
X5469520D01*
X5449200Y5449200D02*
Y5550800D01*
X5550800D01*
Y5449200D01*
X5449200D01*
X5469520Y5469520D02*
Y5530480D01*
X5530480D01*
Y5469520D01*
X5469520D01*
X449200Y449200D02*
Y550800D01*
X550800D01*
Y449200D01*
X449200D01*
X469520Y469520D02*
Y530480D01*
X530480D01*
Y469520D01*
X469520D01*
X2216696Y5601431D02*
Y5576031D01*
X2267496D01*
Y5601431D01*
X2292896D01*
Y5652231D01*
X2267496D01*
Y5677631D01*
X2216696D01*
Y5652231D01*
X2191296D01*
Y5601431D01*
X2216696D01*
X1200696D02*
Y5576031D01*
X1251496D01*
Y5601431D01*
X1276896D01*
Y5652231D01*
X1251496D01*
Y5677631D01*
X1200696D01*
Y5652231D01*
X1175296D01*
Y5601431D01*
X1200696D01*
X1099200Y3349200D02*
Y3450800D01*
X1200800D01*
Y3349200D01*
X1099200D01*
X599200D02*
Y3450800D01*
X700800D01*
Y3349200D01*
X599200D01*
X1392942Y287540D02*
X1418342Y338340D01*
X1392942Y389140D01*
X1443742Y363740D01*
X1494542Y389140D01*
X1469142Y338340D01*
X1494542Y287540D01*
X1443742Y312940D01*
X1392942Y287540D01*
X2492942D02*
X2518342Y338340D01*
X2492942Y389140D01*
X2543742Y363740D01*
X2594542Y389140D01*
X2569142Y338340D01*
X2594542Y287540D01*
X2543742Y312940D01*
X2492942Y287540D01*
X2243742Y787540D02*
X2269142Y812940D01*
X2294542D01*
X2269142Y838340D01*
X2294542Y863740D01*
X2269142D01*
X2243742Y889140D01*
X2218342Y863740D01*
X2192942D01*
X2218342Y838340D01*
X2192942Y812940D01*
X2218342D01*
X2243742Y787540D01*
X1743742D02*
X1769142Y812940D01*
X1794542D01*
X1769142Y838340D01*
X1794542Y863740D01*
X1769142D01*
X1743742Y889140D01*
X1718342Y863740D01*
X1692942D01*
X1718342Y838340D01*
X1692942Y812940D01*
X1718342D01*
X1743742Y787540D01*
X5773900Y2274200D02*
X5723100Y2375800D01*
X5824700D01*
X5773900Y2274200D01*
Y3624200D02*
X5723100Y3725800D01*
X5824700D01*
X5773900Y3624200D01*
X3505000Y109200D02*
X3454200Y210800D01*
X3555800D01*
X3505000Y109200D01*
X4855000D02*
X4804200Y210800D01*
X4905800D01*
X4855000Y109200D01*
X4119200Y2820000D02*
X4170000Y2870800D01*
X4220800Y2820000D01*
X4170000Y2769200D01*
X4119200Y2820000D01*
X1958340Y3939540D02*
X2009140Y3990340D01*
X2059940Y3939540D01*
X2009140Y3888740D01*
X1958340Y3939540D01*
X2749200Y3607300D02*
X2800000Y3658100D01*
X2850800Y3607300D01*
X2800000Y3556500D01*
X2749200Y3607300D01*
X674200Y1125000D02*
X725000Y1175800D01*
X775800Y1125000D01*
X725000Y1074200D01*
X674200Y1125000D01*
X3024200Y3150000D02*
X3075000Y3200800D01*
X3125800Y3150000D01*
X3075000Y3099200D01*
X3024200Y3150000D01*
X2124200Y2575000D02*
X2175000Y2625800D01*
X2225800Y2575000D01*
X2175000Y2524200D01*
X2124200Y2575000D01*
X549200Y1250000D02*
X600000Y1300800D01*
X650800Y1250000D01*
X600000Y1199200D01*
X549200Y1250000D01*
X1924200Y3150000D02*
X1975000Y3200800D01*
X2025800Y3150000D01*
X1975000Y3099200D01*
X1924200Y3150000D01*
X1974200Y1850000D02*
X2025000Y1900800D01*
X2075800Y1850000D01*
X2025000Y1799200D01*
X1974200Y1850000D01*
X2350000Y2199200D02*
X2375400Y2224600D01*
X2400800D01*
X2375400Y2250000D01*
X2400800Y2275400D01*
X2375400D01*
X2350000Y2300800D01*
X2324600Y2275400D01*
X2299200D01*
X2324600Y2250000D01*
X2299200Y2224600D01*
X2324600D01*
X2350000Y2199200D01*
Y2219520D02*
X2365240Y2234760D01*
X2380480D01*
X2365240Y2250000D01*
X2380480Y2265240D01*
X2365240D01*
X2350000Y2280480D01*
X2334760Y2265240D01*
X2319520D01*
X2334760Y2250000D01*
X2319520Y2234760D01*
X2334760D01*
X2350000Y2219520D01*
X2249200Y3000000D02*
X2300000Y3050800D01*
X2350800Y3000000D01*
X2300000Y2949200D01*
X2249200Y3000000D01*
X549200Y1575000D02*
X600000Y1625800D01*
X650800Y1575000D01*
X600000Y1524200D01*
X549200Y1575000D01*
X674200Y1625000D02*
X725000Y1675800D01*
X775800Y1625000D01*
X725000Y1574200D01*
X674200Y1625000D01*
X424200Y1875000D02*
X475000Y1925800D01*
X525800Y1875000D01*
X475000Y1824200D01*
X424200Y1875000D01*
X399200Y2200000D02*
X450000Y2250800D01*
X500800Y2200000D01*
X450000Y2149200D01*
X399200Y2200000D01*
Y2475000D02*
X450000Y2525800D01*
X500800Y2475000D01*
X450000Y2424200D01*
X399200Y2475000D01*
X3424200Y2525000D02*
X3475000Y2575800D01*
X3525800Y2525000D01*
X3475000Y2474200D01*
X3424200Y2525000D01*
Y2425000D02*
X3475000Y2475800D01*
X3525800Y2425000D01*
X3475000Y2374200D01*
X3424200Y2425000D01*
X2674200Y2624827D02*
X2725000Y2675627D01*
X2775800Y2624827D01*
X2725000Y2574027D01*
X2674200Y2624827D01*
X3074200Y3925000D02*
X3125000Y3975800D01*
X3175800Y3925000D01*
X3125000Y3874200D01*
X3074200Y3925000D01*
X4249200Y4025000D02*
X4300000Y4075800D01*
X4350800Y4025000D01*
X4300000Y3974200D01*
X4249200Y4025000D01*
Y3825000D02*
X4300000Y3875800D01*
X4350800Y3825000D01*
X4300000Y3774200D01*
X4249200Y3825000D01*
X5074200Y5250000D02*
X5125000Y5300800D01*
X5175800Y5250000D01*
X5125000Y5199200D01*
X5074200Y5250000D01*
X3874200Y4875000D02*
X3925000Y4925800D01*
X3975800Y4875000D01*
X3925000Y4824200D01*
X3874200Y4875000D01*
X2324200Y4850000D02*
X2375000Y4900800D01*
X2425800Y4850000D01*
X2375000Y4799200D01*
X2324200Y4850000D01*
X3324200Y5000000D02*
X3375000Y5050800D01*
X3425800Y5000000D01*
X3375000Y4949200D01*
X3324200Y5000000D01*
X1874200Y5125000D02*
X1925000Y5175800D01*
X1975800Y5125000D01*
X1925000Y5074200D01*
X1874200Y5125000D01*
X874200Y5075000D02*
X925000Y5125800D01*
X975800Y5075000D01*
X925000Y5024200D01*
X874200Y5075000D01*
X1945920Y4061460D02*
X1996720Y4112260D01*
X2047520Y4061460D01*
X1996720Y4010660D01*
X1945920Y4061460D01*
X2599200Y3925000D02*
X2650000Y3975800D01*
X2700800Y3925000D01*
X2650000Y3874200D01*
X2599200Y3925000D01*
X2901073Y3502505D02*
X2951873Y3553305D01*
X3002673Y3502505D01*
X2951873Y3451705D01*
X2901073Y3502505D01*
X3345373Y3021173D02*
X3396173Y3071973D01*
X3446973Y3021173D01*
X3396173Y2970373D01*
X3345373Y3021173D01*
X3449200Y2800000D02*
X3500000Y2850800D01*
X3550800Y2800000D01*
X3500000Y2749200D01*
X3449200Y2800000D01*
X4124200Y3325000D02*
X4175000Y3375800D01*
X4225800Y3325000D01*
X4175000Y3274200D01*
X4124200Y3325000D01*
X3699200Y5900000D02*
X3750000Y5950800D01*
X3800800Y5900000D01*
X3750000Y5849200D01*
X3699200Y5900000D01*
X3949200Y5350000D02*
X4000000Y5400800D01*
X4050800Y5350000D01*
X4000000Y5299200D01*
X3949200Y5350000D01*
X2624200Y5675000D02*
X2675000Y5725800D01*
X2725800Y5675000D01*
X2675000Y5624200D01*
X2624200Y5675000D01*
X4224200D02*
X4275000Y5725800D01*
X4325800Y5675000D01*
X4275000Y5624200D01*
X4224200Y5675000D01*
X324200Y1350000D02*
X375000Y1400800D01*
X425800Y1350000D01*
X375000Y1299200D01*
X324200Y1350000D01*
X3824200Y3350000D02*
X3875000Y3400800D01*
X3925800Y3350000D01*
X3875000Y3299200D01*
X3824200Y3350000D01*
Y3450000D02*
X3875000Y3500800D01*
X3925800Y3450000D01*
X3875000Y3399200D01*
X3824200Y3450000D01*
Y3550000D02*
X3875000Y3600800D01*
X3925800Y3550000D01*
X3875000Y3499200D01*
X3824200Y3550000D01*
Y3650000D02*
X3875000Y3700800D01*
X3925800Y3650000D01*
X3875000Y3599200D01*
X3824200Y3650000D01*
X3924200D02*
X3975000Y3700800D01*
X4025800Y3650000D01*
X3975000Y3599200D01*
X3924200Y3650000D01*
Y3550000D02*
X3975000Y3600800D01*
X4025800Y3550000D01*
X3975000Y3499200D01*
X3924200Y3550000D01*
Y3450000D02*
X3975000Y3500800D01*
X4025800Y3450000D01*
X3975000Y3399200D01*
X3924200Y3450000D01*
Y3350000D02*
X3975000Y3400800D01*
X4025800Y3350000D01*
X3975000Y3299200D01*
X3924200Y3350000D01*
Y3750000D02*
X3975000Y3800800D01*
X4025800Y3750000D01*
X3975000Y3699200D01*
X3924200Y3750000D01*
X3824200D02*
X3875000Y3800800D01*
X3925800Y3750000D01*
X3875000Y3699200D01*
X3824200Y3750000D01*
X2524200Y3100000D02*
X2575000Y3150800D01*
X2625800Y3100000D01*
X2575000Y3049200D01*
X2524200Y3100000D01*
Y3200000D02*
X2575000Y3250800D01*
X2625800Y3200000D01*
X2575000Y3149200D01*
X2524200Y3200000D01*
X2399200Y3100000D02*
X2450000Y3150800D01*
X2500800Y3100000D01*
X2450000Y3049200D01*
X2399200Y3100000D01*
Y3200000D02*
X2450000Y3250800D01*
X2500800Y3200000D01*
X2450000Y3149200D01*
X2399200Y3200000D01*
X4574200Y2450000D02*
X4625000Y2500800D01*
X4675800Y2450000D01*
X4625000Y2399200D01*
X4574200Y2450000D01*
X4699200D02*
X4750000Y2500800D01*
X4800800Y2450000D01*
X4750000Y2399200D01*
X4699200Y2450000D01*
Y2825000D02*
X4750000Y2875800D01*
X4800800Y2825000D01*
X4750000Y2774200D01*
X4699200Y2825000D01*
Y2700000D02*
X4750000Y2750800D01*
X4800800Y2700000D01*
X4750000Y2649200D01*
X4699200Y2700000D01*
Y2575000D02*
X4750000Y2625800D01*
X4800800Y2575000D01*
X4750000Y2524200D01*
X4699200Y2575000D01*
X4574200Y2700000D02*
X4625000Y2750800D01*
X4675800Y2700000D01*
X4625000Y2649200D01*
X4574200Y2700000D01*
Y2825000D02*
X4625000Y2875800D01*
X4675800Y2825000D01*
X4625000Y2774200D01*
X4574200Y2825000D01*
Y2575000D02*
X4625000Y2625800D01*
X4675800Y2575000D01*
X4625000Y2524200D01*
X4574200Y2575000D01*
X2350000Y2324200D02*
X2375400Y2349600D01*
X2400800D01*
X2375400Y2375000D01*
X2400800Y2400400D01*
X2375400D01*
X2350000Y2425800D01*
X2324600Y2400400D01*
X2299200D01*
X2324600Y2375000D01*
X2299200Y2349600D01*
X2324600D01*
X2350000Y2324200D01*
Y2344520D02*
X2365240Y2359760D01*
X2380480D01*
X2365240Y2375000D01*
X2380480Y2390240D01*
X2365240D01*
X2350000Y2405480D01*
X2334760Y2390240D01*
X2319520D01*
X2334760Y2375000D01*
X2319520Y2359760D01*
X2334760D01*
X2350000Y2344520D01*
X2349200Y2575000D02*
X2400000Y2625800D01*
X2450800Y2575000D01*
X2400000Y2524200D01*
X2349200Y2575000D01*
Y2475000D02*
X2400000Y2525800D01*
X2450800Y2475000D01*
X2400000Y2424200D01*
X2349200Y2475000D01*
X2474200Y2575000D02*
X2525000Y2625800D01*
X2575800Y2575000D01*
X2525000Y2524200D01*
X2474200Y2575000D01*
Y2475000D02*
X2525000Y2525800D01*
X2575800Y2475000D01*
X2525000Y2424200D01*
X2474200Y2475000D01*
X1124200Y3100000D02*
X1175000Y3150800D01*
X1225800Y3100000D01*
X1175000Y3049200D01*
X1124200Y3100000D01*
X1224200D02*
X1275000Y3150800D01*
X1325800Y3100000D01*
X1275000Y3049200D01*
X1224200Y3100000D01*
Y2700000D02*
X1275000Y2750800D01*
X1325800Y2700000D01*
X1275000Y2649200D01*
X1224200Y2700000D01*
Y2800000D02*
X1275000Y2850800D01*
X1325800Y2800000D01*
X1275000Y2749200D01*
X1224200Y2800000D01*
Y2900000D02*
X1275000Y2950800D01*
X1325800Y2900000D01*
X1275000Y2849200D01*
X1224200Y2900000D01*
Y3000000D02*
X1275000Y3050800D01*
X1325800Y3000000D01*
X1275000Y2949200D01*
X1224200Y3000000D01*
X1124200D02*
X1175000Y3050800D01*
X1225800Y3000000D01*
X1175000Y2949200D01*
X1124200Y3000000D01*
Y2900000D02*
X1175000Y2950800D01*
X1225800Y2900000D01*
X1175000Y2849200D01*
X1124200Y2900000D01*
Y2800000D02*
X1175000Y2850800D01*
X1225800Y2800000D01*
X1175000Y2749200D01*
X1124200Y2800000D01*
Y2700000D02*
X1175000Y2750800D01*
X1225800Y2700000D01*
X1175000Y2649200D01*
X1124200Y2700000D01*
X2424200Y4500000D02*
X2475000Y4550800D01*
X2525800Y4500000D01*
X2475000Y4449200D01*
X2424200Y4500000D01*
X2324200D02*
X2375000Y4550800D01*
X2425800Y4500000D01*
X2375000Y4449200D01*
X2324200Y4500000D01*
X2224200D02*
X2275000Y4550800D01*
X2325800Y4500000D01*
X2275000Y4449200D01*
X2224200Y4500000D01*
X2124200D02*
X2175000Y4550800D01*
X2225800Y4500000D01*
X2175000Y4449200D01*
X2124200Y4500000D01*
Y4600000D02*
X2175000Y4650800D01*
X2225800Y4600000D01*
X2175000Y4549200D01*
X2124200Y4600000D01*
X2224200D02*
X2275000Y4650800D01*
X2325800Y4600000D01*
X2275000Y4549200D01*
X2224200Y4600000D01*
X2324200D02*
X2375000Y4650800D01*
X2425800Y4600000D01*
X2375000Y4549200D01*
X2324200Y4600000D01*
X2424200D02*
X2475000Y4650800D01*
X2525800Y4600000D01*
X2475000Y4549200D01*
X2424200Y4600000D01*
X3449200Y4425000D02*
X3500000Y4475800D01*
X3550800Y4425000D01*
X3500000Y4374200D01*
X3449200Y4425000D01*
Y4550000D02*
X3500000Y4600800D01*
X3550800Y4550000D01*
X3500000Y4499200D01*
X3449200Y4550000D01*
X1024200D02*
X1075000Y4600800D01*
X1125800Y4550000D01*
X1075000Y4499200D01*
X1024200Y4550000D01*
Y4450000D02*
X1075000Y4500800D01*
X1125800Y4450000D01*
X1075000Y4399200D01*
X1024200Y4450000D01*
Y4350000D02*
X1075000Y4400800D01*
X1125800Y4350000D01*
X1075000Y4299200D01*
X1024200Y4350000D01*
Y4250000D02*
X1075000Y4300800D01*
X1125800Y4250000D01*
X1075000Y4199200D01*
X1024200Y4250000D01*
Y4150000D02*
X1075000Y4200800D01*
X1125800Y4150000D01*
X1075000Y4099200D01*
X1024200Y4150000D01*
X3824200Y4425000D02*
X3875000Y4475800D01*
X3925800Y4425000D01*
X3875000Y4374200D01*
X3824200Y4425000D01*
X3699200D02*
X3750000Y4475800D01*
X3800800Y4425000D01*
X3750000Y4374200D01*
X3699200Y4425000D01*
X3574200D02*
X3625000Y4475800D01*
X3675800Y4425000D01*
X3625000Y4374200D01*
X3574200Y4425000D01*
Y4550000D02*
X3625000Y4600800D01*
X3675800Y4550000D01*
X3625000Y4499200D01*
X3574200Y4550000D01*
X3699200D02*
X3750000Y4600800D01*
X3800800Y4550000D01*
X3750000Y4499200D01*
X3699200Y4550000D01*
X3824200D02*
X3875000Y4600800D01*
X3925800Y4550000D01*
X3875000Y4499200D01*
X3824200Y4550000D01*
X5024200Y4475000D02*
X5075000Y4525800D01*
X5125800Y4475000D01*
X5075000Y4424200D01*
X5024200Y4475000D01*
X349200Y2275000D02*
X400000Y2325800D01*
X450800Y2275000D01*
X400000Y2224200D01*
X349200Y2275000D01*
X2999200Y3300000D02*
X3050000Y3350800D01*
X3100800Y3300000D01*
X3050000Y3249200D01*
X2999200Y3300000D01*
X2699200Y1225000D02*
X2750000Y1275800D01*
X2800800Y1225000D01*
X2750000Y1174200D01*
X2699200Y1225000D01*
X4299200Y2825000D02*
X4350000Y2875800D01*
X4400800Y2825000D01*
X4350000Y2774200D01*
X4299200Y2825000D01*
X3399200Y1675000D02*
X3450000Y1725800D01*
X3500800Y1675000D01*
X3450000Y1624200D01*
X3399200Y1675000D01*
X3324200Y1825000D02*
X3375000Y1875800D01*
X3425800Y1825000D01*
X3375000Y1774200D01*
X3324200Y1825000D01*
X2949200Y1225000D02*
X3000000Y1275800D01*
X3050800Y1225000D01*
X3000000Y1174200D01*
X2949200Y1225000D01*
X2824200D02*
X2875000Y1275800D01*
X2925800Y1225000D01*
X2875000Y1174200D01*
X2824200Y1225000D01*
X2699200Y1100000D02*
X2750000Y1150800D01*
X2800800Y1100000D01*
X2750000Y1049200D01*
X2699200Y1100000D01*
X2824200D02*
X2875000Y1150800D01*
X2925800Y1100000D01*
X2875000Y1049200D01*
X2824200Y1100000D01*
X2949200D02*
X3000000Y1150800D01*
X3050800Y1100000D01*
X3000000Y1049200D01*
X2949200Y1100000D01*
X2574200D02*
X2625000Y1150800D01*
X2675800Y1100000D01*
X2625000Y1049200D01*
X2574200Y1100000D01*
Y1225000D02*
X2625000Y1275800D01*
X2675800Y1225000D01*
X2625000Y1174200D01*
X2574200Y1225000D01*
D80*
X4180480Y5175000D02*
G03*
X4180480Y5175000I-30480J0D01*
G01*
X3080480Y4200000D02*
G03*
X3080480Y4200000I-30480J0D01*
G01*
D137*
X5224700Y3360000D02*
G03*
X5224700Y3360000I-50800J0D01*
G01*
X4590800Y760000D02*
G03*
X4590800Y760000I-50800J0D01*
G01*
X3870800D02*
G03*
X3870800Y760000I-50800J0D01*
G01*
X5224700Y2640000D02*
G03*
X5224700Y2640000I-50800J0D01*
G01*
X4200800Y5175000D02*
G03*
X4200800Y5175000I-50800J0D01*
G01*
X3100800Y4200000D02*
G03*
X3100800Y4200000I-50800J0D01*
G01*
%TF.MD5,04eaa6e2b886a10e3d797260d0d8efbf*%
M02*
