%TF.GenerationSoftware,Altium Limited,Altium Designer,24.5.2 (23)*%
G04 Layer_Color=0*
%FSLAX45Y45*%
%MOMM*%
%TF.SameCoordinates,36DB1FCB-C3D3-4704-BDE4-177FFF87CD08*%
%TF.FilePolarity,Positive*%
%TF.FileFunction,Plated,1,4,PTH,Drill*%
%TF.Part,Single*%
G01*
G75*
%TA.AperFunction,ComponentDrill*%
%ADD125C,3.20000*%
%ADD126C,0.75000*%
%ADD127C,1.20000*%
%ADD128C,1.90000*%
%ADD129C,2.70000*%
%ADD130C,2.70000*%
%ADD131R,1.70000X0.60000*%
%ADD132R,0.60000X1.70000*%
%TA.AperFunction,ViaDrill,NotFilled*%
%ADD133C,0.30000*%
%ADD134C,0.60000*%
%ADD135C,0.71120*%
D125*
X2242096Y5626831D02*
D03*
X1226096D02*
D03*
D126*
X1150000Y3400000D02*
D03*
X650000D02*
D03*
D127*
X1443742Y338340D02*
D03*
X2543742D02*
D03*
D128*
X2243742Y838340D02*
D03*
X1743742D02*
D03*
D129*
X5173900Y3360000D02*
D03*
Y2640000D02*
D03*
D130*
X4540000Y760000D02*
D03*
X3820000D02*
D03*
D131*
X5773900Y2325000D02*
D03*
Y3675000D02*
D03*
D132*
X3505000Y160000D02*
D03*
X4855000D02*
D03*
D133*
X4170000Y2820000D02*
D03*
X2009140Y3939540D02*
D03*
X2800000Y3607300D02*
D03*
X725000Y1125000D02*
D03*
X3075000Y3150000D02*
D03*
X2175000Y2575000D02*
D03*
X600000Y1250000D02*
D03*
X1975000Y3150000D02*
D03*
X2025000Y1850000D02*
D03*
X2300000Y3000000D02*
D03*
X600000Y1575000D02*
D03*
X725000Y1625000D02*
D03*
X475000Y1875000D02*
D03*
X450000Y2200000D02*
D03*
Y2475000D02*
D03*
X3475000Y2525000D02*
D03*
Y2425000D02*
D03*
X2725000Y2624827D02*
D03*
X3125000Y3925000D02*
D03*
X4300000Y4025000D02*
D03*
Y3825000D02*
D03*
X5125000Y5250000D02*
D03*
X3925000Y4875000D02*
D03*
X2375000Y4850000D02*
D03*
X3375000Y5000000D02*
D03*
X1925000Y5125000D02*
D03*
X925000Y5075000D02*
D03*
X1996720Y4061460D02*
D03*
X2650000Y3925000D02*
D03*
X2951873Y3502505D02*
D03*
X3396173Y3021173D02*
D03*
X3500000Y2800000D02*
D03*
X4175000Y3325000D02*
D03*
X3750000Y5900000D02*
D03*
X4000000Y5350000D02*
D03*
X2675000Y5675000D02*
D03*
X4275000D02*
D03*
X375000Y1350000D02*
D03*
X3875000Y3350000D02*
D03*
Y3450000D02*
D03*
Y3550000D02*
D03*
Y3650000D02*
D03*
X3975000D02*
D03*
Y3550000D02*
D03*
Y3450000D02*
D03*
Y3350000D02*
D03*
Y3750000D02*
D03*
X3875000D02*
D03*
X2575000Y3100000D02*
D03*
Y3200000D02*
D03*
X2450000Y3100000D02*
D03*
Y3200000D02*
D03*
X4625000Y2450000D02*
D03*
X4750000D02*
D03*
Y2825000D02*
D03*
Y2700000D02*
D03*
Y2575000D02*
D03*
X4625000Y2700000D02*
D03*
Y2825000D02*
D03*
Y2575000D02*
D03*
X2400000D02*
D03*
Y2475000D02*
D03*
X2525000Y2575000D02*
D03*
Y2475000D02*
D03*
X1175000Y3100000D02*
D03*
X1275000D02*
D03*
Y2700000D02*
D03*
Y2800000D02*
D03*
Y2900000D02*
D03*
Y3000000D02*
D03*
X1175000D02*
D03*
Y2900000D02*
D03*
Y2800000D02*
D03*
Y2700000D02*
D03*
X2475000Y4500000D02*
D03*
X2375000D02*
D03*
X2275000D02*
D03*
X2175000D02*
D03*
Y4600000D02*
D03*
X2275000D02*
D03*
X2375000D02*
D03*
X2475000D02*
D03*
X3500000Y4425000D02*
D03*
Y4550000D02*
D03*
X1075000D02*
D03*
Y4450000D02*
D03*
Y4350000D02*
D03*
Y4250000D02*
D03*
Y4150000D02*
D03*
X3875000Y4425000D02*
D03*
X3750000D02*
D03*
X3625000D02*
D03*
Y4550000D02*
D03*
X3750000D02*
D03*
X3875000D02*
D03*
X5075000Y4475000D02*
D03*
X400000Y2275000D02*
D03*
X3050000Y3300000D02*
D03*
X2750000Y1225000D02*
D03*
X4350000Y2825000D02*
D03*
X3450000Y1675000D02*
D03*
X3375000Y1825000D02*
D03*
X3000000Y1225000D02*
D03*
X2875000D02*
D03*
X2750000Y1100000D02*
D03*
X2875000D02*
D03*
X3000000D02*
D03*
X2625000D02*
D03*
Y1225000D02*
D03*
D134*
X2350000Y2250000D02*
D03*
Y2375000D02*
D03*
D135*
X4150000Y5175000D02*
D03*
X3050000Y4200000D02*
D03*
%TF.MD5,00ebfaa1f8c13029d52fd46171d81822*%
M02*
