%TF.GenerationSoftware,Altium Limited,Altium Designer,24.5.2 (23)*%
G04 Layer_Color=8388736*
%FSLAX45Y45*%
%MOMM*%
%TF.SameCoordinates,36DB1FCB-C3D3-4704-BDE4-177FFF87CD08*%
%TF.FilePolarity,Negative*%
%TF.FileFunction,Soldermask,Top*%
%TF.Part,Single*%
G01*
G75*
%TA.AperFunction,SMDPad,CuDef*%
%ADD14R,1.70000X0.60000*%
%ADD15R,2.70000X1.00000*%
%ADD29R,1.95580X3.14960*%
%ADD81R,1.08000X1.02000*%
G04:AMPARAMS|DCode=82|XSize=2.33mm|YSize=3.27mm|CornerRadius=0.3475mm|HoleSize=0mm|Usage=FLASHONLY|Rotation=0.000|XOffset=0mm|YOffset=0mm|HoleType=Round|Shape=RoundedRectangle|*
%AMROUNDEDRECTD82*
21,1,2.33000,2.57500,0,0,0.0*
21,1,1.63500,3.27000,0,0,0.0*
1,1,0.69500,0.81750,-1.28750*
1,1,0.69500,-0.81750,-1.28750*
1,1,0.69500,-0.81750,1.28750*
1,1,0.69500,0.81750,1.28750*
%
%ADD82ROUNDEDRECTD82*%
%ADD83R,3.94000X1.14000*%
%ADD84R,7.77000X10.99000*%
%ADD85R,1.25000X1.15000*%
%ADD86R,5.55000X3.05000*%
%ADD87R,0.55000X0.75000*%
G04:AMPARAMS|DCode=88|XSize=2.9694mm|YSize=1.166mm|CornerRadius=0.583mm|HoleSize=0mm|Usage=FLASHONLY|Rotation=270.000|XOffset=0mm|YOffset=0mm|HoleType=Round|Shape=RoundedRectangle|*
%AMROUNDEDRECTD88*
21,1,2.96940,0.00000,0,0,270.0*
21,1,1.80340,1.16600,0,0,270.0*
1,1,1.16600,0.00000,-0.90170*
1,1,1.16600,0.00000,0.90170*
1,1,1.16600,0.00000,0.90170*
1,1,1.16600,0.00000,-0.90170*
%
%ADD88ROUNDEDRECTD88*%
G04:AMPARAMS|DCode=89|XSize=0.7596mm|YSize=1.8518mm|CornerRadius=0.3798mm|HoleSize=0mm|Usage=FLASHONLY|Rotation=180.000|XOffset=0mm|YOffset=0mm|HoleType=Round|Shape=RoundedRectangle|*
%AMROUNDEDRECTD89*
21,1,0.75960,1.09220,0,0,180.0*
21,1,0.00000,1.85180,0,0,180.0*
1,1,0.75960,0.00000,0.54610*
1,1,0.75960,0.00000,0.54610*
1,1,0.75960,0.00000,-0.54610*
1,1,0.75960,0.00000,-0.54610*
%
%ADD89ROUNDEDRECTD89*%
%ADD90R,1.59000X1.97000*%
G04:AMPARAMS|DCode=91|XSize=2.33mm|YSize=3.27mm|CornerRadius=0.3475mm|HoleSize=0mm|Usage=FLASHONLY|Rotation=90.000|XOffset=0mm|YOffset=0mm|HoleType=Round|Shape=RoundedRectangle|*
%AMROUNDEDRECTD91*
21,1,2.33000,2.57500,0,0,90.0*
21,1,1.63500,3.27000,0,0,90.0*
1,1,0.69500,1.28750,0.81750*
1,1,0.69500,1.28750,-0.81750*
1,1,0.69500,-1.28750,-0.81750*
1,1,0.69500,-1.28750,0.81750*
%
%ADD91ROUNDEDRECTD91*%
G04:AMPARAMS|DCode=92|XSize=1.39mm|YSize=2.07mm|CornerRadius=0.23mm|HoleSize=0mm|Usage=FLASHONLY|Rotation=0.000|XOffset=0mm|YOffset=0mm|HoleType=Round|Shape=RoundedRectangle|*
%AMROUNDEDRECTD92*
21,1,1.39000,1.61000,0,0,0.0*
21,1,0.93000,2.07000,0,0,0.0*
1,1,0.46000,0.46500,-0.80500*
1,1,0.46000,-0.46500,-0.80500*
1,1,0.46000,-0.46500,0.80500*
1,1,0.46000,0.46500,0.80500*
%
%ADD92ROUNDEDRECTD92*%
%ADD93R,0.95000X0.78000*%
%ADD94R,0.69000X0.75000*%
%ADD95R,1.02000X1.08000*%
G04:AMPARAMS|DCode=96|XSize=2.12mm|YSize=0.75mm|CornerRadius=0.15mm|HoleSize=0mm|Usage=FLASHONLY|Rotation=0.000|XOffset=0mm|YOffset=0mm|HoleType=Round|Shape=RoundedRectangle|*
%AMROUNDEDRECTD96*
21,1,2.12000,0.45000,0,0,0.0*
21,1,1.82000,0.75000,0,0,0.0*
1,1,0.30000,0.91000,-0.22500*
1,1,0.30000,-0.91000,-0.22500*
1,1,0.30000,-0.91000,0.22500*
1,1,0.30000,0.91000,0.22500*
%
%ADD96ROUNDEDRECTD96*%
%ADD97R,0.85000X0.65000*%
%TA.AperFunction,WasherPad*%
%ADD98C,0.20000*%
%TA.AperFunction,ComponentPad*%
%ADD99R,5.20320X5.20320*%
%ADD100C,1.85000*%
%ADD101R,1.85000X1.85000*%
%ADD102C,1.65000*%
%ADD103R,2.65000X2.65000*%
%ADD104C,2.65000*%
%ADD105C,3.86600*%
%ADD106R,3.86600X3.86600*%
%ADD107O,2.55000X1.35000*%
%ADD108R,3.86600X3.86600*%
%ADD109O,1.35000X2.55000*%
D14*
X719800Y1872701D02*
D03*
Y1747701D02*
D03*
D15*
X399800Y2057701D02*
D03*
Y1562701D02*
D03*
D29*
X5370110Y1700000D02*
D03*
X4879890D02*
D03*
D81*
X4170000Y3128000D02*
D03*
Y2972000D02*
D03*
D82*
X1851500Y3650000D02*
D03*
X2548500D02*
D03*
D83*
X1712000Y1596000D02*
D03*
Y2104000D02*
D03*
Y1850000D02*
D03*
D84*
X2800000D02*
D03*
D85*
X4390000Y3600000D02*
D03*
X4560000D02*
D03*
X3415000Y2025000D02*
D03*
X2035000Y2575000D02*
D03*
X1865000D02*
D03*
X3585000Y2025000D02*
D03*
D86*
X3475000Y4790000D02*
D03*
Y3800000D02*
D03*
D87*
X845000Y1400000D02*
D03*
X955000D02*
D03*
D88*
X3908000Y5670000D02*
D03*
X2892500D02*
D03*
D89*
X3714960Y5355000D02*
D03*
X3587960D02*
D03*
X3087500D02*
D03*
X3212500D02*
D03*
X3463500D02*
D03*
X3337500D02*
D03*
D90*
X3341400Y3400000D02*
D03*
X3608600D02*
D03*
D91*
X4550000Y4697000D02*
D03*
Y4000000D02*
D03*
D92*
X4350000Y3000000D02*
D03*
X4648000D02*
D03*
D93*
X4380000Y3325000D02*
D03*
X4620000Y3420000D02*
D03*
Y3325000D02*
D03*
Y3230000D02*
D03*
X4380000Y3420000D02*
D03*
Y3230000D02*
D03*
D94*
X3531800Y1800000D02*
D03*
X3618200D02*
D03*
D95*
X3847000Y3100000D02*
D03*
X4003000D02*
D03*
D96*
X3879999Y2278009D02*
D03*
Y2151009D02*
D03*
Y2024009D02*
D03*
Y1897009D02*
D03*
X4374999D02*
D03*
Y2024009D02*
D03*
Y2151009D02*
D03*
Y2278009D02*
D03*
D97*
X3650000Y2275000D02*
D03*
X3450000D02*
D03*
D98*
X500000Y5500000D02*
D03*
X5500000Y500000D02*
D03*
Y5500000D02*
D03*
X500000Y500000D02*
D03*
D99*
X2242096Y5626831D02*
D03*
X1226096D02*
D03*
D100*
X1150000Y3400000D02*
D03*
D101*
X650000D02*
D03*
D102*
X1443742Y338340D02*
D03*
X2543742D02*
D03*
D103*
X2243742Y838340D02*
D03*
D104*
X1743742D02*
D03*
D105*
X5173900Y3360000D02*
D03*
X4540000Y760000D02*
D03*
D106*
X3820000D02*
D03*
D107*
X5773900Y2325000D02*
D03*
Y3675000D02*
D03*
D108*
X5173900Y2640000D02*
D03*
D109*
X3505000Y160000D02*
D03*
X4855000D02*
D03*
%TF.MD5,0a06ace064855574698393d304bf88a4*%
M02*
